ComicNeue-Angular_Oblique.ufo
<glyph name="quotedbl" format="1">
  <advance width="312"/>
  <unicode hex="0022"/>
  <outline>
    <contour>
      <point x="176" y="510" type="line"/>
      <point x="214" y="690" type="line"/>
      <point x="158" y="680" type="line"/>
      <point x="120" y="500" type="line"/>
    </contour>
    <contour>
      <point x="296" y="510" type="line"/>
      <point x="334" y="690" type="line"/>
      <point x="278" y="680" type="line"/>
      <point x="240" y="500" type="line"/>
    </contour>
  </outline>
</glyph>
<glyph name="numbersign" format="1">
  <advance width="751"/>
  <unicode hex="0023"/>
  <outline>
    <contour>
      <point x="710" y="431" type="line"/>
      <point x="570" y="431" type="line"/>
      <point x="488" y="266" type="line"/>
      <point x="646" y="266" type="line"/>
      <point x="619" y="212" type="line"/>
      <point x="461" y="212" type="line"/>
      <point x="356" y="4" type="line"/>
      <point x="299" y="0" type="line"/>
      <point x="405" y="212" type="line"/>
      <point x="251" y="212" type="line"/>
      <point x="146" y="4" type="line"/>
      <point x="89" y="0" type="line"/>
      <point x="195" y="212" type="line"/>
      <point x="51" y="212" type="line"/>
      <point x="77" y="266" type="line"/>
      <point x="222" y="266" type="line"/>
      <point x="304" y="431" type="line"/>
      <point x="136" y="431" type="line"/>
      <point x="163" y="484" type="line"/>
      <point x="331" y="484" type="line"/>
      <point x="434" y="689" type="line"/>
      <point x="492" y="693" type="line"/>
      <point x="387" y="484" type="line"/>
      <point x="541" y="484" type="line"/>
      <point x="643" y="688" type="line"/>
      <point x="701" y="692" type="line"/>
      <point x="597" y="484" type="line"/>
      <point x="736" y="484" type="line"/>
    </contour>
    <contour>
      <point x="432" y="266" type="line"/>
      <point x="514" y="431" type="line"/>
      <point x="360" y="431" type="line"/>
      <point x="278" y="266" type="line"/>
    </contour>
  </outline>
</glyph>
<glyph name="dollar" format="1">
  <advance width="605"/>
  <unicode hex="0024"/>
  <outline>
    <contour>
      <point x="363" y="383" type="curve"/>
      <point x="416" y="631" type="line"/>
      <point x="484" y="630"/>
      <point x="546" y="601"/>
      <point x="546" y="548" type="curve" smooth="yes"/>
      <point x="546" y="536"/>
      <point x="541" y="522"/>
      <point x="538" y="510" type="curve"/>
      <point x="593" y="521" type="line"/>
      <point x="599" y="534"/>
      <point x="601" y="554"/>
      <point x="601" y="568" type="curve" smooth="yes"/>
      <point x="601" y="661"/>
      <point x="490" y="679"/>
      <point x="426" y="681" type="curve"/>
      <point x="441" y="751" type="line"/>
      <point x="386" y="741" type="line"/>
      <point x="373" y="678" type="line"/>
      <point x="296" y="674"/>
      <point x="150" y="622"/>
      <point x="150" y="483" type="curve" smooth="yes"/>
      <point x="150" y="407"/>
      <point x="224" y="363"/>
      <point x="300" y="338" type="curve"/>
      <point x="240" y="54" type="line"/>
      <point x="175" y="61"/>
      <point x="114" y="95"/>
      <point x="104" y="162" type="curve"/>
      <point x="41" y="152" type="line"/>
      <point x="51" y="67"/>
      <point x="124" y="8"/>
      <point x="229" y="0" type="curve"/>
      <point x="213" y="-75" type="line"/>
      <point x="268" y="-65" type="line"/>
      <point x="282" y="1" type="line"/>
      <point x="399" y="14"/>
      <point x="531" y="95"/>
      <point x="531" y="224" type="curve" smooth="yes"/>
      <point x="531" y="295"/>
      <point x="475" y="347"/>
    </contour>
    <contour>
      <point x="362" y="628" type="curve"/>
      <point x="313" y="399" type="line"/>
      <point x="244" y="425"/>
      <point x="215" y="453"/>
      <point x="215" y="492" type="curve" smooth="yes"/>
      <point x="215" y="571"/>
      <point x="295" y="619"/>
    </contour>
    <contour>
      <point x="293" y="55" type="curve"/>
      <point x="350" y="322" type="line"/>
      <point x="410" y="300"/>
      <point x="466" y="274"/>
      <point x="466" y="213" type="curve" smooth="yes"/>
      <point x="466" y="119"/>
      <point x="368" y="67"/>
    </contour>
  </outline>
</glyph>
<glyph name="percent" format="1">
  <advance width="728"/>
  <unicode hex="0025"/>
  <outline>
    <contour>
      <point x="231" y="422" type="curve" smooth="yes"/>
      <point x="315" y="422"/>
      <point x="399" y="499"/>
      <point x="399" y="586" type="curve" smooth="yes"/>
      <point x="399" y="648"/>
      <point x="354" y="694"/>
      <point x="289" y="694" type="curve" smooth="yes"/>
      <point x="205" y="694"/>
      <point x="121" y="617"/>
      <point x="121" y="529" type="curve" smooth="yes"/>
      <point x="121" y="468"/>
      <point x="166" y="422"/>
    </contour>
    <contour>
      <point x="466" y="-8" type="curve" smooth="yes"/>
      <point x="550" y="-8"/>
      <point x="634" y="69"/>
      <point x="634" y="156" type="curve" smooth="yes"/>
      <point x="634" y="218"/>
      <point x="589" y="264"/>
      <point x="524" y="264" type="curve" smooth="yes"/>
      <point x="440" y="264"/>
      <point x="356" y="187"/>
      <point x="356" y="99" type="curve" smooth="yes"/>
      <point x="356" y="38"/>
      <point x="401" y="-8"/>
    </contour>
    <contour>
      <point x="616" y="689" type="line"/>
      <point x="90" y="0" type="line"/>
      <point x="145" y="0" type="line"/>
      <point x="671" y="689" type="line"/>
    </contour>
    <contour>
      <point x="278" y="640" type="curve" smooth="yes"/>
      <point x="317" y="640"/>
      <point x="344" y="612"/>
      <point x="344" y="575" type="curve" smooth="yes"/>
      <point x="344" y="523"/>
      <point x="294" y="476"/>
      <point x="243" y="476" type="curve" smooth="yes"/>
      <point x="203" y="476"/>
      <point x="176" y="504"/>
      <point x="176" y="542" type="curve" smooth="yes"/>
      <point x="176" y="594"/>
      <point x="228" y="640"/>
    </contour>
    <contour>
      <point x="512" y="210" type="curve" smooth="yes"/>
      <point x="551" y="210"/>
      <point x="579" y="181"/>
      <point x="579" y="144" type="curve" smooth="yes"/>
      <point x="579" y="92"/>
      <point x="526" y="46"/>
      <point x="477" y="46" type="curve" smooth="yes"/>
      <point x="438" y="46"/>
      <point x="411" y="74"/>
      <point x="411" y="110" type="curve" smooth="yes"/>
      <point x="411" y="163"/>
      <point x="461" y="210"/>
    </contour>
  </outline>
</glyph>
<glyph name="quotesingle" format="1">
  <advance width="192"/>
  <unicode hex="0027"/>
  <outline>
    <contour>
      <point x="176" y="510" type="line"/>
      <point x="120" y="500" type="line"/>
      <point x="158" y="680" type="line"/>
      <point x="214" y="690" type="line"/>
    </contour>
  </outline>
</glyph>
<glyph name="parenleft" format="1">
  <advance width="377"/>
  <unicode hex="0028"/>
  <outline>
    <contour>
      <point x="223" y="-79" type="curve"/>
      <point x="177" y="-118" type="line"/>
      <point x="105" y="-31"/>
      <point x="71" y="98"/>
      <point x="71" y="222" type="curve" smooth="yes"/>
      <point x="71" y="434"/>
      <point x="194" y="667"/>
      <point x="397" y="810" type="curve"/>
      <point x="421" y="768" type="line"/>
      <point x="254" y="646"/>
      <point x="126" y="443"/>
      <point x="126" y="234" type="curve" smooth="yes"/>
      <point x="126" y="113"/>
      <point x="162" y="-6"/>
    </contour>
  </outline>
</glyph>
<glyph name="asterisk" format="1">
  <advance width="417"/>
  <unicode hex="002A"/>
  <outline>
    <contour>
      <point x="400" y="642" type="line"/>
      <point x="415" y="594" type="line"/>
      <point x="351" y="565" type="line" smooth="yes"/>
      <point x="334" y="557"/>
      <point x="304" y="551"/>
      <point x="301" y="551" type="curve"/>
      <point x="301" y="550"/>
      <point x="320" y="535"/>
      <point x="330" y="521" type="curve" smooth="yes"/>
      <point x="371" y="462" type="line"/>
      <point x="323" y="426" type="line"/>
      <point x="282" y="487" type="line" smooth="yes"/>
      <point x="274" y="499"/>
      <point x="264" y="527"/>
      <point x="264" y="527" type="curve"/>
      <point x="264" y="527"/>
      <point x="242" y="499"/>
      <point x="228" y="486" type="curve" smooth="yes"/>
      <point x="161" y="426" type="line"/>
      <point x="129" y="462" type="line"/>
      <point x="193" y="519" type="line" smooth="yes"/>
      <point x="207" y="532"/>
      <point x="233" y="549"/>
      <point x="233" y="549" type="curve"/>
      <point x="233" y="549"/>
      <point x="205" y="558"/>
      <point x="190" y="567" type="curve" smooth="yes"/>
      <point x="142" y="594" type="line"/>
      <point x="176" y="642" type="line"/>
      <point x="222" y="616" type="line" smooth="yes"/>
      <point x="237" y="607"/>
      <point x="255" y="591"/>
      <point x="255" y="590" type="curve"/>
      <point x="254" y="590"/>
      <point x="256" y="621"/>
      <point x="259" y="637" type="curve" smooth="yes"/>
      <point x="270" y="690" type="line"/>
      <point x="324" y="690" type="line"/>
      <point x="313" y="636" type="line" smooth="yes"/>
      <point x="309" y="618"/>
      <point x="298" y="589"/>
      <point x="298" y="589" type="curve"/>
      <point x="298" y="589"/>
      <point x="323" y="607"/>
      <point x="340" y="615" type="curve" smooth="yes"/>
    </contour>
  </outline>
</glyph>
<glyph name="plus" format="1">
  <advance width="441"/>
  <unicode hex="002B"/>
  <outline>
    <contour>
      <point x="391" y="278" type="line"/>
      <point x="368" y="224" type="line"/>
      <point x="239" y="224" type="line"/>
      <point x="212" y="95" type="line"/>
      <point x="156" y="85" type="line"/>
      <point x="185" y="224" type="line"/>
      <point x="46" y="224" type="line"/>
      <point x="68" y="278" type="line"/>
      <point x="197" y="278" type="line"/>
      <point x="223" y="402" type="line"/>
      <point x="279" y="413" type="line"/>
      <point x="251" y="278" type="line"/>
    </contour>
  </outline>
</glyph>
<glyph name="comma" format="1">
  <advance width="317"/>
  <unicode hex="002C"/>
  <outline>
    <contour>
      <point x="125" y="81" type="line"/>
      <point x="54" y="22" type="line"/>
      <point x="89" y="0" type="line"/>
      <point x="14" y="-96" type="line"/>
      <point x="57" y="-124" type="line"/>
      <point x="186" y="42" type="line"/>
    </contour>
  </outline>
</glyph>
<glyph name="hyphen" format="1">
  <advance width="442"/>
  <unicode hex="002D"/>
  <outline>
    <contour>
      <point x="355" y="223" type="line"/>
      <point x="376" y="277" type="line"/>
      <point x="84" y="277" type="line"/>
      <point x="63" y="223" type="line"/>
    </contour>
  </outline>
</glyph>
<glyph name="period" format="1">
  <advance width="222"/>
  <unicode hex="002E"/>
  <outline>
    <contour>
      <point x="115" y="92" type="line"/>
      <point x="90" y="10" type="line"/>
      <point x="14" y="0" type="line"/>
      <point x="40" y="82" type="line"/>
    </contour>
  </outline>
</glyph>
<glyph name="zero" format="1">
  <advance width="614"/>
  <unicode hex="0030"/>
  <outline>
    <contour>
      <point x="240" y="-3" type="curve" smooth="yes"/>
      <point x="397" y="-3"/>
      <point x="576" y="224"/>
      <point x="576" y="456" type="curve" smooth="yes"/>
      <point x="576" y="587"/>
      <point x="515" y="686"/>
      <point x="409" y="686" type="curve" smooth="yes"/>
      <point x="247" y="686"/>
      <point x="71" y="453"/>
      <point x="71" y="228" type="curve" smooth="yes"/>
      <point x="71" y="97"/>
      <point x="133" y="-3"/>
    </contour>
    <contour>
      <point x="398" y="631" type="curve" smooth="yes"/>
      <point x="476" y="631"/>
      <point x="521" y="549"/>
      <point x="521" y="443" type="curve" smooth="yes"/>
      <point x="521" y="242"/>
      <point x="372" y="52"/>
      <point x="252" y="52" type="curve" smooth="yes"/>
      <point x="171" y="52"/>
      <point x="127" y="133"/>
      <point x="127" y="238" type="curve" smooth="yes"/>
      <point x="127" y="441"/>
      <point x="277" y="631"/>
    </contour>
  </outline>
</glyph>
<glyph name="two" format="1">
  <advance width="524"/>
  <unicode hex="0032"/>
  <outline>
    <contour>
      <point x="75" y="54" type="line"/>
      <point x="106" y="167"/>
      <point x="162" y="209"/>
      <point x="269" y="272" type="curve" smooth="yes"/>
      <point x="385" y="340"/>
      <point x="510" y="427"/>
      <point x="509" y="544" type="curve" smooth="yes"/>
      <point x="509" y="605"/>
      <point x="474" y="674"/>
      <point x="353" y="674" type="curve" smooth="yes"/>
      <point x="244" y="674"/>
      <point x="160" y="599"/>
      <point x="128" y="566" type="curve"/>
      <point x="156" y="524" type="line"/>
      <point x="167" y="537"/>
      <point x="243" y="620"/>
      <point x="341" y="620" type="curve" smooth="yes"/>
      <point x="390" y="620"/>
      <point x="454" y="596"/>
      <point x="454" y="533" type="curve" smooth="yes"/>
      <point x="454" y="464"/>
      <point x="394" y="402"/>
      <point x="249" y="317" type="curve" smooth="yes"/>
      <point x="121" y="241"/>
      <point x="43" y="176"/>
      <point x="15" y="27" type="curve" smooth="yes"/>
      <point x="10" y="0" type="line"/>
      <point x="398" y="0" type="line"/>
      <point x="419" y="54" type="line"/>
    </contour>
  </outline>
</glyph>
<glyph name="three" format="1">
  <advance width="549"/>
  <unicode hex="0033"/>
  <outline>
    <contour>
      <point x="382" y="385" type="curve"/>
      <point x="439" y="360"/>
      <point x="473" y="316"/>
      <point x="473" y="250" type="curve" smooth="yes"/>
      <point x="473" y="64"/>
      <point x="299" y="-4"/>
      <point x="218" y="-4" type="curve" smooth="yes"/>
      <point x="132" y="-4"/>
      <point x="50" y="39"/>
      <point x="40" y="132" type="curve"/>
      <point x="96" y="154" type="line"/>
      <point x="100" y="88"/>
      <point x="156" y="50"/>
      <point x="229" y="50" type="curve" smooth="yes"/>
      <point x="326" y="50"/>
      <point x="416" y="137"/>
      <point x="416" y="238" type="curve" smooth="yes"/>
      <point x="416" y="324"/>
      <point x="336" y="352"/>
      <point x="242" y="352" type="curve"/>
      <point x="251" y="406" type="line"/>
      <point x="373" y="413"/>
      <point x="466" y="474"/>
      <point x="466" y="548" type="curve" smooth="yes"/>
      <point x="466" y="589"/>
      <point x="424" y="629"/>
      <point x="346" y="629" type="curve" smooth="yes"/>
      <point x="272" y="629"/>
      <point x="208" y="580"/>
      <point x="193" y="569" type="curve"/>
      <point x="165" y="609" type="line"/>
      <point x="190" y="629"/>
      <point x="267" y="683"/>
      <point x="358" y="683" type="curve" smooth="yes"/>
      <point x="457" y="683"/>
      <point x="525" y="631"/>
      <point x="525" y="560" type="curve" smooth="yes"/>
      <point x="525" y="471"/>
      <point x="449" y="413"/>
    </contour>
  </outline>
</glyph>
<glyph name="four" format="1">
  <advance width="518"/>
  <unicode hex="0034"/>
  <outline>
    <contour>
      <point x="343" y="10" type="line"/>
      <point x="376" y="166" type="line"/>
      <point x="432" y="166" type="line"/>
      <point x="454" y="217" type="line"/>
      <point x="387" y="217" type="line"/>
      <point x="486" y="684" type="line"/>
      <point x="19" y="173" type="line"/>
      <point x="324" y="173" type="line"/>
      <point x="289" y="0" type="line"/>
    </contour>
    <contour>
      <point x="127" y="219" type="line"/>
      <point x="399" y="521" type="line"/>
      <point x="335" y="219" type="line"/>
    </contour>
  </outline>
</glyph>
<glyph name="six" format="1">
  <advance width="546"/>
  <unicode hex="0036"/>
  <outline>
    <contour>
      <point x="442" y="684" type="line"/>
      <point x="231" y="594"/>
      <point x="49" y="394"/>
      <point x="49" y="169" type="curve" smooth="yes"/>
      <point x="49" y="69"/>
      <point x="100" y="-5"/>
      <point x="222" y="-5" type="curve" smooth="yes"/>
      <point x="375" y="-5"/>
      <point x="482" y="160"/>
      <point x="482" y="296" type="curve" smooth="yes"/>
      <point x="482" y="437"/>
      <point x="345" y="442"/>
      <point x="327" y="442" type="curve" smooth="yes"/>
      <point x="264" y="442"/>
      <point x="210" y="422"/>
      <point x="169" y="400" type="curve"/>
      <point x="226" y="503"/>
      <point x="346" y="596"/>
      <point x="448" y="634" type="curve"/>
    </contour>
    <contour>
      <point x="130" y="318" type="curve"/>
      <point x="153" y="337"/>
      <point x="223" y="389"/>
      <point x="316" y="389" type="curve" smooth="yes"/>
      <point x="345" y="389"/>
      <point x="429" y="380"/>
      <point x="429" y="284" type="curve" smooth="yes"/>
      <point x="429" y="179"/>
      <point x="347" y="48"/>
      <point x="234" y="48" type="curve" smooth="yes"/>
      <point x="170" y="48"/>
      <point x="102" y="72"/>
      <point x="102" y="175" type="curve" smooth="yes"/>
      <point x="102" y="212"/>
      <point x="112" y="273"/>
    </contour>
  </outline>
</glyph>
<glyph name="seven" format="1">
  <advance width="501"/>
  <unicode hex="0037"/>
  <outline>
    <contour>
      <point x="99" y="0" type="line"/>
      <point x="584" y="675" type="line"/>
      <point x="152" y="675" type="line"/>
      <point x="150" y="621" type="line"/>
      <point x="486" y="621" type="line"/>
      <point x="57" y="25" type="line"/>
    </contour>
  </outline>
</glyph>
<glyph name="colon" format="1">
  <advance width="250"/>
  <unicode hex="003A"/>
  <outline>
    <contour>
      <point x="218" y="445" type="line"/>
      <point x="142" y="435" type="line"/>
      <point x="116" y="353" type="line"/>
      <point x="192" y="363" type="line"/>
    </contour>
    <contour>
      <point x="115" y="92" type="line"/>
      <point x="40" y="82" type="line"/>
      <point x="14" y="0" type="line"/>
      <point x="90" y="10" type="line"/>
    </contour>
  </outline>
</glyph>
<glyph name="semicolon" format="1">
  <advance width="332"/>
  <unicode hex="003B"/>
  <outline>
    <contour>
      <point x="288" y="447" type="line"/>
      <point x="261" y="365" type="line"/>
      <point x="185" y="355" type="line"/>
      <point x="211" y="437" type="line"/>
    </contour>
    <contour>
      <point x="124" y="80" type="line"/>
      <point x="186" y="41" type="line"/>
      <point x="57" y="-124" type="line"/>
      <point x="14" y="-96" type="line"/>
      <point x="89" y="0" type="line"/>
      <point x="54" y="22" type="line"/>
    </contour>
  </outline>
</glyph>
<glyph name="less" format="1">
  <advance width="568"/>
  <unicode hex="003C"/>
  <outline>
    <contour>
      <point x="391" y="-2" type="line"/>
      <point x="431" y="43" type="line"/>
      <point x="168" y="250" type="line"/>
      <point x="536" y="459" type="line"/>
      <point x="517" y="504" type="line"/>
      <point x="70" y="251" type="line"/>
    </contour>
  </outline>
</glyph>
<glyph name="equal" format="1">
  <advance width="505"/>
  <unicode hex="003D"/>
  <outline>
    <contour>
      <point x="428" y="299" type="line"/>
      <point x="450" y="353" type="line"/>
      <point x="107" y="353" type="line"/>
      <point x="85" y="299" type="line"/>
    </contour>
    <contour>
      <point x="396" y="146" type="line"/>
      <point x="417" y="199" type="line"/>
      <point x="74" y="199" type="line"/>
      <point x="53" y="146" type="line"/>
    </contour>
  </outline>
</glyph>
<glyph name="greater" format="1">
  <advance width="568"/>
  <unicode hex="003E"/>
  <outline>
    <contour>
      <point x="49" y="-2" type="line"/>
      <point x="30" y="43" type="line"/>
      <point x="398" y="252" type="line"/>
      <point x="135" y="460" type="line"/>
      <point x="175" y="504" type="line"/>
      <point x="496" y="251" type="line"/>
    </contour>
  </outline>
</glyph>
<glyph name="question" format="1">
  <advance width="542"/>
  <unicode hex="003F"/>
  <outline>
    <contour>
      <point x="350" y="713" type="curve" smooth="yes"/>
      <point x="243" y="713"/>
      <point x="161" y="633"/>
      <point x="132" y="600" type="curve"/>
      <point x="163" y="561" type="line"/>
      <point x="171" y="572"/>
      <point x="244" y="659"/>
      <point x="339" y="659" type="curve" smooth="yes"/>
      <point x="442" y="659"/>
      <point x="478" y="604"/>
      <point x="478" y="544" type="curve" smooth="yes"/>
      <point x="478" y="438"/>
      <point x="387" y="380"/>
      <point x="323" y="332" type="curve" smooth="yes"/>
      <point x="154" y="205" type="line"/>
      <point x="171" y="157" type="line"/>
      <point x="347" y="289" type="line" smooth="yes"/>
      <point x="414" y="339"/>
      <point x="532" y="416"/>
      <point x="532" y="555" type="curve" smooth="yes"/>
      <point x="532" y="651"/>
      <point x="464" y="713"/>
    </contour>
    <contour>
      <point x="177" y="92" type="line"/>
      <point x="119" y="82" type="line"/>
      <point x="95" y="0" type="line"/>
      <point x="153" y="10" type="line"/>
    </contour>
  </outline>
</glyph>
<glyph name="A" format="1">
  <advance width="623"/>
  <unicode hex="0041"/>
  <outline>
    <contour>
      <point x="449" y="680" type="line"/>
      <point x="376" y="667" type="line"/>
      <point x="133" y="253" type="line"/>
      <point x="55" y="238" type="line"/>
      <point x="55" y="184" type="line"/>
      <point x="97" y="192" type="line"/>
      <point x="0" y="26" type="line"/>
      <point x="44" y="0" type="line"/>
      <point x="164" y="206" type="line"/>
      <point x="440" y="261" type="line"/>
      <point x="471" y="1" type="line"/>
      <point x="525" y="33" type="line"/>
    </contour>
    <contour>
      <point x="200" y="267" type="line"/>
      <point x="400" y="607" type="line"/>
      <point x="434" y="313" type="line"/>
    </contour>
  </outline>
</glyph>
<glyph name="B" format="1">
  <advance width="602"/>
  <unicode hex="0042"/>
  <outline>
    <contour>
      <point x="10" y="0" type="line"/>
      <point x="77" y="0" type="line" smooth="yes"/>
      <point x="202" y="0"/>
      <point x="543" y="22"/>
      <point x="543" y="234" type="curve" smooth="yes"/>
      <point x="543" y="315"/>
      <point x="470" y="364"/>
      <point x="414" y="369" type="curve"/>
      <point x="503" y="402"/>
      <point x="548" y="468"/>
      <point x="548" y="544" type="curve" smooth="yes"/>
      <point x="548" y="630"/>
      <point x="482" y="681"/>
      <point x="365" y="681" type="curve" smooth="yes"/>
      <point x="154" y="681" type="line"/>
    </contour>
    <contour>
      <point x="134" y="332" type="line"/>
      <point x="318" y="332" type="line" smooth="yes"/>
      <point x="384" y="332"/>
      <point x="489" y="315"/>
      <point x="489" y="229" type="curve" smooth="yes"/>
      <point x="489" y="81"/>
      <point x="215" y="53"/>
      <point x="99" y="53" type="curve" smooth="yes"/>
      <point x="90" y="53"/>
      <point x="87" y="53"/>
      <point x="75" y="54" type="curve"/>
    </contour>
    <contour>
      <point x="197" y="627" type="line"/>
      <point x="354" y="627" type="line" smooth="yes"/>
      <point x="464" y="627"/>
      <point x="493" y="582"/>
      <point x="493" y="534" type="curve" smooth="yes"/>
      <point x="493" y="414"/>
      <point x="368" y="385"/>
      <point x="285" y="385" type="curve" smooth="yes"/>
      <point x="145" y="385" type="line"/>
    </contour>
  </outline>
</glyph>
<glyph name="F" format="1">
  <advance width="505"/>
  <unicode hex="0046"/>
  <outline>
    <contour>
      <point x="572" y="625" type="line"/>
      <point x="594" y="681" type="line"/>
      <point x="149" y="681" type="line"/>
      <point x="5" y="0" type="line"/>
      <point x="63" y="10" type="line"/>
      <point x="128" y="317" type="line"/>
      <point x="456" y="317" type="line"/>
      <point x="478" y="374" type="line"/>
      <point x="140" y="374" type="line"/>
      <point x="193" y="625" type="line"/>
    </contour>
  </outline>
</glyph>
<glyph name="H" format="1">
  <advance width="683"/>
  <unicode hex="0048"/>
  <outline>
    <contour>
      <point x="649" y="671" type="line"/>
      <point x="593" y="406" type="line"/>
      <point x="139" y="344" type="line"/>
      <point x="210" y="681" type="line"/>
      <point x="152" y="671" type="line"/>
      <point x="10" y="0" type="line"/>
      <point x="70" y="20" type="line"/>
      <point x="127" y="287" type="line"/>
      <point x="581" y="349" type="line"/>
      <point x="507" y="0" type="line"/>
      <point x="567" y="20" type="line"/>
      <point x="707" y="681" type="line"/>
    </contour>
  </outline>
</glyph>
<glyph name="J" format="1">
  <advance width="469"/>
  <unicode hex="004A"/>
  <outline>
    <contour>
      <point x="277" y="679" type="line"/>
      <point x="265" y="622" type="line"/>
      <point x="419" y="622" type="line"/>
      <point x="321" y="162" type="line" smooth="yes"/>
      <point x="307" y="98"/>
      <point x="252" y="52"/>
      <point x="180" y="52" type="curve" smooth="yes"/>
      <point x="119" y="52"/>
      <point x="82" y="87"/>
      <point x="82" y="138" type="curve" smooth="yes"/>
      <point x="82" y="146"/>
      <point x="83" y="154"/>
      <point x="85" y="162" type="curve" smooth="yes"/>
      <point x="94" y="207" type="line"/>
      <point x="36" y="197" type="line"/>
      <point x="29" y="162" type="line" smooth="yes"/>
      <point x="26" y="150"/>
      <point x="25" y="138"/>
      <point x="25" y="127" type="curve" smooth="yes"/>
      <point x="25" y="52"/>
      <point x="81" y="1"/>
      <point x="169" y="1" type="curve" smooth="yes"/>
      <point x="272" y="1"/>
      <point x="357" y="67"/>
      <point x="377" y="162" type="curve" smooth="yes"/>
      <point x="475" y="622" type="line"/>
      <point x="526" y="622" type="line"/>
      <point x="538" y="679" type="line"/>
    </contour>
  </outline>
</glyph>
<glyph name="K" format="1">
  <advance width="577"/>
  <unicode hex="004B"/>
  <outline>
    <contour>
      <point x="481" y="43" type="line"/>
      <point x="156" y="336" type="line"/>
      <point x="581" y="639" type="line"/>
      <point x="555" y="680" type="line"/>
      <point x="146" y="388" type="line"/>
      <point x="208" y="681" type="line"/>
      <point x="152" y="671" type="line"/>
      <point x="10" y="0" type="line"/>
      <point x="66" y="10" type="line"/>
      <point x="124" y="285" type="line"/>
      <point x="439" y="0" type="line"/>
    </contour>
  </outline>
</glyph>
<glyph name="L" format="1">
  <advance width="487"/>
  <unicode hex="004C"/>
  <outline>
    <contour>
      <point x="10" y="0" type="line"/>
      <point x="417" y="29" type="line"/>
      <point x="425" y="85" type="line"/>
      <point x="78" y="60" type="line"/>
      <point x="210" y="678" type="line"/>
      <point x="151" y="668" type="line"/>
    </contour>
  </outline>
</glyph>
<glyph name="N" format="1">
  <advance width="615"/>
  <unicode hex="004E"/>
  <outline>
    <contour>
      <point x="584" y="671" type="line"/>
      <point x="460" y="88" type="line"/>
      <point x="213" y="681" type="line"/>
      <point x="151" y="664" type="line"/>
      <point x="11" y="1" type="line"/>
      <point x="66" y="12" type="line"/>
      <point x="188" y="588" type="line"/>
      <point x="431" y="0" type="line"/>
      <point x="497" y="13" type="line"/>
      <point x="639" y="681" type="line"/>
    </contour>
  </outline>
</glyph>
<glyph name="O" format="1">
  <advance width="660"/>
  <unicode hex="004F"/>
  <outline>
    <contour>
      <point x="253" y="-2" type="curve" smooth="yes"/>
      <point x="427" y="-2"/>
      <point x="632" y="217"/>
      <point x="632" y="450" type="curve" smooth="yes"/>
      <point x="632" y="583"/>
      <point x="560" y="682"/>
      <point x="440" y="682" type="curve" smooth="yes"/>
      <point x="266" y="682"/>
      <point x="62" y="463"/>
      <point x="62" y="229" type="curve" smooth="yes"/>
      <point x="62" y="98"/>
      <point x="133" y="-2"/>
    </contour>
    <contour>
      <point x="422" y="630" type="curve" smooth="yes"/>
      <point x="521" y="630"/>
      <point x="576" y="539"/>
      <point x="576" y="431" type="curve" smooth="yes"/>
      <point x="576" y="233"/>
      <point x="400" y="50"/>
      <point x="264" y="50" type="curve" smooth="yes"/>
      <point x="171" y="50"/>
      <point x="116" y="130"/>
      <point x="116" y="237" type="curve" smooth="yes"/>
      <point x="116" y="446"/>
      <point x="286" y="630"/>
    </contour>
  </outline>
</glyph>
<glyph name="P" format="1">
  <advance width="545"/>
  <unicode hex="0050"/>
  <outline>
    <contour>
      <point x="115" y="238" type="line"/>
      <point x="304" y="244"/>
      <point x="565" y="318"/>
      <point x="565" y="515" type="curve" smooth="yes"/>
      <point x="565" y="655"/>
      <point x="393" y="679"/>
      <point x="266" y="679" type="curve" smooth="yes"/>
      <point x="232" y="679"/>
      <point x="176" y="676"/>
      <point x="153" y="674" type="curve"/>
      <point x="10" y="0" type="line"/>
      <point x="67" y="10" type="line"/>
    </contour>
    <contour>
      <point x="197" y="623" type="line"/>
      <point x="243" y="623" type="line" smooth="yes"/>
      <point x="446" y="623"/>
      <point x="506" y="568"/>
      <point x="506" y="497" type="curve" smooth="yes"/>
      <point x="506" y="387"/>
      <point x="368" y="303"/>
      <point x="127" y="293" type="curve"/>
    </contour>
  </outline>
</glyph>
<glyph name="S" format="1">
  <advance width="599"/>
  <unicode hex="0053"/>
  <outline>
    <contour>
      <point x="408" y="631" type="curve" smooth="yes"/>
      <point x="461" y="631"/>
      <point x="541" y="613"/>
      <point x="541" y="546" type="curve" smooth="yes"/>
      <point x="541" y="536"/>
      <point x="540" y="523"/>
      <point x="535" y="510" type="curve"/>
      <point x="589" y="521" type="line"/>
      <point x="595" y="534"/>
      <point x="597" y="554"/>
      <point x="597" y="567" type="curve" smooth="yes"/>
      <point x="597" y="653"/>
      <point x="513" y="681"/>
      <point x="395" y="681" type="curve" smooth="yes"/>
      <point x="289" y="681"/>
      <point x="145" y="615"/>
      <point x="145" y="483" type="curve" smooth="yes"/>
      <point x="145" y="400"/>
      <point x="237" y="354"/>
      <point x="321" y="330" type="curve" smooth="yes"/>
      <point x="442" y="295"/>
      <point x="463" y="256"/>
      <point x="463" y="220" type="curve" smooth="yes"/>
      <point x="463" y="116"/>
      <point x="354" y="52"/>
      <point x="260" y="52" type="curve" smooth="yes"/>
      <point x="188" y="52"/>
      <point x="111" y="86"/>
      <point x="100" y="162" type="curve"/>
      <point x="37" y="152" type="line"/>
      <point x="47" y="60"/>
      <point x="131" y="-1"/>
      <point x="249" y="-1" type="curve" smooth="yes"/>
      <point x="352" y="-1"/>
      <point x="526" y="70"/>
      <point x="526" y="223" type="curve" smooth="yes"/>
      <point x="526" y="302"/>
      <point x="479" y="345"/>
      <point x="346" y="387" type="curve" smooth="yes"/>
      <point x="244" y="419"/>
      <point x="210" y="447"/>
      <point x="210" y="491" type="curve" smooth="yes"/>
      <point x="210" y="557"/>
      <point x="266" y="631"/>
    </contour>
  </outline>
</glyph>
<glyph name="Z" format="1">
  <advance width="621"/>
  <unicode hex="005A"/>
  <outline>
    <contour>
      <point x="18" y="0" type="line"/>
      <point x="496" y="0" type="line"/>
      <point x="519" y="61" type="line"/>
      <point x="75" y="61" type="line"/>
      <point x="649" y="626" type="line"/>
      <point x="635" y="681" type="line"/>
      <point x="179" y="681" type="line"/>
      <point x="155" y="620" type="line"/>
      <point x="577" y="620" type="line"/>
      <point x="4" y="55" type="line"/>
    </contour>
  </outline>
</glyph>
<glyph name="bracketleft" format="1">
  <advance width="315"/>
  <unicode hex="005B"/>
  <outline>
    <contour>
      <point x="152" y="-124" type="line"/>
      <point x="174" y="-70" type="line"/>
      <point x="50" y="-70" type="line"/>
      <point x="224" y="751" type="line"/>
      <point x="353" y="751" type="line"/>
      <point x="375" y="805" type="line"/>
      <point x="182" y="805" type="line"/>
      <point x="-16" y="-124" type="line"/>
    </contour>
  </outline>
</glyph>
<glyph name="backslash" format="1">
  <advance width="492"/>
  <unicode hex="005C"/>
  <outline>
    <contour>
      <point x="179" y="693" type="line"/>
      <point x="413" y="0" type="line"/>
      <point x="351" y="0" type="line"/>
      <point x="118" y="693" type="line"/>
    </contour>
  </outline>
</glyph>
<glyph name="underscore" format="1">
  <advance width="476"/>
  <unicode hex="005F"/>
  <outline>
    <contour>
      <point x="411" y="-54" type="line"/>
      <point x="433" y="0" type="line"/>
      <point x="-57" y="0" type="line"/>
      <point x="-78" y="-54" type="line"/>
    </contour>
  </outline>
</glyph>
<glyph name="b" format="1">
  <advance width="528"/>
  <unicode hex="0062"/>
  <outline>
    <contour>
      <point x="353" y="490" type="curve" smooth="yes"/>
      <point x="278" y="490"/>
      <point x="198" y="459"/>
      <point x="152" y="409" type="curve"/>
      <point x="213" y="692" type="line"/>
      <point x="154" y="681" type="line"/>
      <point x="12" y="10" type="line"/>
      <point x="66" y="0" type="line"/>
      <point x="72" y="29" type="line"/>
      <point x="100" y="16"/>
      <point x="152" y="1"/>
      <point x="204" y="1" type="curve" smooth="yes"/>
      <point x="390" y="1"/>
      <point x="487" y="188"/>
      <point x="487" y="339" type="curve" smooth="yes"/>
      <point x="487" y="419"/>
      <point x="454" y="490"/>
    </contour>
    <contour>
      <point x="207" y="55" type="curve" smooth="yes"/>
      <point x="150" y="55"/>
      <point x="99" y="73"/>
      <point x="83" y="82" type="curve"/>
      <point x="127" y="291" type="line" smooth="yes"/>
      <point x="144" y="370"/>
      <point x="237" y="434"/>
      <point x="344" y="434" type="curve" smooth="yes"/>
      <point x="413" y="434"/>
      <point x="432" y="377"/>
      <point x="432" y="323" type="curve" smooth="yes"/>
      <point x="432" y="177"/>
      <point x="343" y="55"/>
    </contour>
  </outline>
</glyph>
<glyph name="c" format="1">
  <advance width="507"/>
  <unicode hex="0063"/>
  <outline>
    <contour>
      <point x="233" y="52" type="curve"/>
      <point x="189" y="52"/>
      <point x="90" y="71"/>
      <point x="90" y="176" type="curve" smooth="yes"/>
      <point x="90" y="258"/>
      <point x="192" y="450"/>
      <point x="316" y="450" type="curve" smooth="yes"/>
      <point x="362" y="450"/>
      <point x="399" y="429"/>
      <point x="414" y="391" type="curve"/>
      <point x="462" y="430" type="line"/>
      <point x="437" y="477"/>
      <point x="389" y="502"/>
      <point x="325" y="502" type="curve" smooth="yes"/>
      <point x="166" y="502"/>
      <point x="36" y="279"/>
      <point x="36" y="173" type="curve" smooth="yes"/>
      <point x="36" y="73"/>
      <point x="112" y="0"/>
      <point x="213" y="0" type="curve" smooth="yes"/>
      <point x="293" y="0"/>
      <point x="371" y="38"/>
      <point x="422" y="97" type="curve"/>
      <point x="391" y="137" type="line"/>
      <point x="354" y="88"/>
      <point x="295" y="55"/>
    </contour>
  </outline>
</glyph>
<glyph name="d" format="1">
  <advance width="526"/>
  <unicode hex="0064"/>
  <outline>
    <contour>
      <point x="495" y="687" type="line"/>
      <point x="442" y="464" type="line"/>
      <point x="413" y="479"/>
      <point x="370" y="495"/>
      <point x="315" y="495" type="curve" smooth="yes"/>
      <point x="158" y="495"/>
      <point x="36" y="344"/>
      <point x="36" y="158" type="curve" smooth="yes"/>
      <point x="36" y="75"/>
      <point x="74" y="6"/>
      <point x="167" y="6" type="curve" smooth="yes"/>
      <point x="246" y="6"/>
      <point x="311" y="48"/>
      <point x="353" y="80" type="curve"/>
      <point x="334" y="0" type="line"/>
      <point x="392" y="10" type="line"/>
      <point x="554" y="697" type="line"/>
    </contour>
    <contour>
      <point x="372" y="162" type="line" smooth="yes"/>
      <point x="365" y="131"/>
      <point x="278" y="55"/>
      <point x="177" y="55" type="curve" smooth="yes"/>
      <point x="110" y="55"/>
      <point x="92" y="109"/>
      <point x="92" y="164" type="curve" smooth="yes"/>
      <point x="92" y="225"/>
      <point x="136" y="442"/>
      <point x="302" y="442" type="curve" smooth="yes"/>
      <point x="361" y="442"/>
      <point x="412" y="414"/>
      <point x="428" y="404" type="curve"/>
    </contour>
  </outline>
</glyph>
<glyph name="g" format="1">
  <advance width="522"/>
  <unicode hex="0067"/>
  <outline>
    <contour>
      <point x="509" y="508" type="line"/>
      <point x="451" y="499" type="line"/>
      <point x="444" y="469" type="line"/>
      <point x="421" y="484"/>
      <point x="386" y="501"/>
      <point x="339" y="501" type="curve" smooth="yes"/>
      <point x="166" y="501"/>
      <point x="39" y="317"/>
      <point x="39" y="173" type="curve" smooth="yes"/>
      <point x="39" y="70"/>
      <point x="99" y="0"/>
      <point x="194" y="0" type="curve" smooth="yes"/>
      <point x="252" y="0"/>
      <point x="307" y="31"/>
      <point x="353" y="79" type="curve"/>
      <point x="338" y="18" type="line" smooth="yes"/>
      <point x="327" y="-25"/>
      <point x="292" y="-129"/>
      <point x="161" y="-129" type="curve" smooth="yes"/>
      <point x="118" y="-129"/>
      <point x="76" y="-122"/>
      <point x="49" y="-116" type="curve"/>
      <point x="25" y="-171" type="line"/>
      <point x="55" y="-178"/>
      <point x="101" y="-185"/>
      <point x="149" y="-185" type="curve" smooth="yes"/>
      <point x="274" y="-185"/>
      <point x="364" y="-112"/>
      <point x="395" y="19" type="curve" smooth="yes"/>
    </contour>
    <contour>
      <point x="428" y="413" type="curve"/>
      <point x="397" y="268" type="line" smooth="yes"/>
      <point x="362" y="106"/>
      <point x="271" y="53"/>
      <point x="200" y="53" type="curve" smooth="yes"/>
      <point x="118" y="53"/>
      <point x="90" y="126"/>
      <point x="90" y="192" type="curve" smooth="yes"/>
      <point x="90" y="320"/>
      <point x="205" y="446"/>
      <point x="332" y="446" type="curve" smooth="yes"/>
      <point x="372" y="446"/>
      <point x="408" y="431"/>
    </contour>
  </outline>
</glyph>
<glyph name="h" format="1">
  <advance width="504"/>
  <unicode hex="0068"/>
  <outline>
    <contour>
      <point x="107" y="196" type="line" smooth="yes"/>
      <point x="114" y="230"/>
      <point x="124" y="260"/>
      <point x="141" y="285" type="curve" smooth="yes"/>
      <point x="164" y="319"/>
      <point x="273" y="451"/>
      <point x="359" y="451" type="curve" smooth="yes"/>
      <point x="391" y="451"/>
      <point x="405" y="421"/>
      <point x="405" y="364" type="curve" smooth="yes"/>
      <point x="405" y="311"/>
      <point x="393" y="234"/>
      <point x="372" y="136" type="curve" smooth="yes"/>
      <point x="358" y="69"/>
      <point x="345" y="14"/>
      <point x="342" y="0" type="curve"/>
      <point x="398" y="10" type="line"/>
      <point x="402" y="28"/>
      <point x="414" y="78"/>
      <point x="428" y="142" type="curve" smooth="yes"/>
      <point x="449" y="238"/>
      <point x="460" y="315"/>
      <point x="460" y="374" type="curve" smooth="yes"/>
      <point x="460" y="461"/>
      <point x="434" y="505"/>
      <point x="371" y="505" type="curve" smooth="yes"/>
      <point x="287" y="505"/>
      <point x="190" y="416"/>
      <point x="137" y="336" type="curve"/>
      <point x="213" y="692" type="line"/>
      <point x="154" y="681" type="line"/>
      <point x="10" y="0" type="line"/>
      <point x="68" y="10" type="line"/>
    </contour>
  </outline>
</glyph>
<glyph name="i" format="1">
  <advance width="193"/>
  <unicode hex="0069"/>
  <outline>
    <contour>
      <point x="114" y="491" type="line"/>
      <point x="175" y="500" type="line"/>
      <point x="71" y="10" type="line"/>
      <point x="10" y="0" type="line"/>
    </contour>
    <contour>
      <point x="219" y="689" type="line"/>
      <point x="196" y="607" type="line"/>
      <point x="136" y="597" type="line"/>
      <point x="161" y="679" type="line"/>
    </contour>
  </outline>
</glyph>
<glyph name="k" format="1">
  <advance width="494"/>
  <unicode hex="006B"/>
  <outline>
    <contour>
      <point x="266" y="298" type="curve"/>
      <point x="318" y="334"/>
      <point x="443" y="445"/>
      <point x="499" y="502" type="curve"/>
      <point x="462" y="534" type="line"/>
      <point x="362" y="432"/>
      <point x="186" y="291"/>
      <point x="121" y="254" type="curve"/>
      <point x="214" y="692" type="line"/>
      <point x="154" y="681" type="line"/>
      <point x="12" y="0" type="line"/>
      <point x="71" y="10" type="line"/>
      <point x="110" y="201" type="line"/>
      <point x="136" y="214"/>
      <point x="171" y="235"/>
      <point x="217" y="264" type="curve"/>
      <point x="252" y="214"/>
      <point x="318" y="107"/>
      <point x="366" y="0" type="curve"/>
      <point x="416" y="37" type="line"/>
      <point x="342" y="169"/>
      <point x="275" y="286"/>
    </contour>
  </outline>
</glyph>
<glyph name="l" format="1">
  <advance width="226"/>
  <unicode hex="006C"/>
  <outline>
    <contour>
      <point x="174" y="681" type="line"/>
      <point x="233" y="692" type="line"/>
      <point x="88" y="10" type="line"/>
      <point x="30" y="0" type="line"/>
    </contour>
  </outline>
</glyph>
<glyph name="o" format="1">
  <advance width="535"/>
  <unicode hex="006F"/>
  <outline>
    <contour>
      <point x="197" y="0" type="curve" smooth="yes"/>
      <point x="334" y="0"/>
      <point x="493" y="154"/>
      <point x="493" y="323" type="curve" smooth="yes"/>
      <point x="493" y="423"/>
      <point x="431" y="500"/>
      <point x="334" y="500" type="curve" smooth="yes"/>
      <point x="195" y="500"/>
      <point x="37" y="343"/>
      <point x="37" y="176" type="curve" smooth="yes"/>
      <point x="37" y="75"/>
      <point x="99" y="0"/>
    </contour>
    <contour>
      <point x="319" y="452" type="curve" smooth="yes"/>
      <point x="389" y="452"/>
      <point x="433" y="390"/>
      <point x="433" y="312" type="curve" smooth="yes"/>
      <point x="433" y="178"/>
      <point x="309" y="48"/>
      <point x="207" y="48" type="curve" smooth="yes"/>
      <point x="135" y="48"/>
      <point x="95" y="106"/>
      <point x="95" y="181" type="curve" smooth="yes"/>
      <point x="95" y="317"/>
      <point x="214" y="452"/>
    </contour>
  </outline>
</glyph>
<glyph name="q" format="1">
  <advance width="523"/>
  <unicode hex="0071"/>
  <outline>
    <contour>
      <point x="451" y="490" type="curve"/>
      <point x="456" y="510" type="line"/>
      <point x="510" y="508" type="line"/>
      <point x="339" y="-186" type="line"/>
      <point x="281" y="-196" type="line"/>
      <point x="344" y="59" type="line"/>
      <point x="307" y="12"/>
      <point x="270" y="-10"/>
      <point x="199" y="-10" type="curve" smooth="yes"/>
      <point x="97" y="-10"/>
      <point x="33" y="61"/>
      <point x="33" y="158" type="curve" smooth="yes"/>
      <point x="33" y="333"/>
      <point x="189" y="496"/>
      <point x="377" y="496" type="curve" smooth="yes"/>
      <point x="400" y="496"/>
      <point x="426" y="494"/>
    </contour>
    <contour>
      <point x="371" y="163" type="curve" smooth="yes"/>
      <point x="439" y="438" type="line"/>
      <point x="417" y="442"/>
      <point x="388" y="445"/>
      <point x="366" y="445" type="curve" smooth="yes"/>
      <point x="229" y="445"/>
      <point x="85" y="328"/>
      <point x="85" y="166" type="curve" smooth="yes"/>
      <point x="85" y="91"/>
      <point x="134" y="42"/>
      <point x="209" y="42" type="curve" smooth="yes"/>
      <point x="289" y="42"/>
      <point x="352" y="85"/>
    </contour>
  </outline>
</glyph>
<glyph name="v" format="1">
  <advance width="447"/>
  <unicode hex="0076"/>
  <outline>
    <contour>
      <point x="484" y="480" type="line"/>
      <point x="436" y="500" type="line"/>
      <point x="184" y="77" type="line"/>
      <point x="114" y="500" type="line"/>
      <point x="56" y="479" type="line"/>
      <point x="142" y="0" type="line"/>
      <point x="202" y="12" type="line"/>
    </contour>
  </outline>
</glyph>
<glyph name="w" format="1">
  <advance width="653"/>
  <unicode hex="0077"/>
  <outline>
    <contour>
      <point x="683" y="496" type="line"/>
      <point x="428" y="12" type="line"/>
      <point x="368" y="0" type="line"/>
      <point x="357" y="388" type="line"/>
      <point x="145" y="12" type="line"/>
      <point x="83" y="0" type="line"/>
      <point x="88" y="485" type="line"/>
      <point x="144" y="497" type="line"/>
      <point x="138" y="91" type="line"/>
      <point x="353" y="485" type="line"/>
      <point x="411" y="495" type="line"/>
      <point x="417" y="88" type="line"/>
      <point x="620" y="485" type="line"/>
    </contour>
  </outline>
</glyph>
<glyph name="y" format="1">
  <advance width="500"/>
  <unicode hex="0079"/>
  <outline>
    <contour>
      <point x="480" y="500" type="line"/>
      <point x="526" y="476" type="line"/>
      <point x="71" y="-197" type="line"/>
      <point x="25" y="-173" type="line"/>
      <point x="183" y="61" type="line"/>
      <point x="65" y="474" type="line"/>
      <point x="121" y="499" type="line"/>
      <point x="227" y="127" type="line"/>
    </contour>
  </outline>
</glyph>
<glyph name="cent" format="1">
  <advance width="506"/>
  <unicode hex="00A2"/>
  <outline>
    <contour>
      <point x="239" y="97" type="line"/>
      <point x="320" y="100"/>
      <point x="393" y="138"/>
      <point x="442" y="194" type="curve"/>
      <point x="411" y="234" type="line"/>
      <point x="375" y="186"/>
      <point x="312" y="149"/>
      <point x="251" y="149" type="curve"/>
      <point x="346" y="547" type="line"/>
      <point x="387" y="544"/>
      <point x="420" y="523"/>
      <point x="434" y="488" type="curve"/>
      <point x="483" y="527" type="line"/>
      <point x="460" y="570"/>
      <point x="415" y="597"/>
      <point x="359" y="599" type="curve"/>
      <point x="380" y="688" type="line"/>
      <point x="329" y="670" type="line"/>
      <point x="311" y="595" type="line"/>
      <point x="166" y="554"/>
      <point x="57" y="387"/>
      <point x="57" y="267" type="curve" smooth="yes"/>
      <point x="57" y="190"/>
      <point x="100" y="128"/>
      <point x="194" y="101" type="curve"/>
      <point x="170" y="0" type="line"/>
      <point x="220" y="17" type="line"/>
    </contour>
    <contour>
      <point x="206" y="154" type="line"/>
      <point x="140" y="178"/>
      <point x="112" y="225"/>
      <point x="112" y="279" type="curve" smooth="yes"/>
      <point x="112" y="384"/>
      <point x="208" y="505"/>
      <point x="298" y="540" type="curve"/>
    </contour>
  </outline>
</glyph>
<glyph name="currency" format="1">
  <advance width="500"/>
  <unicode hex="00A4"/>
  <outline>
    <contour>
      <point x="410" y="284" type="curve" smooth="yes"/>
      <point x="410" y="306"/>
      <point x="405" y="327"/>
      <point x="396" y="345" type="curve"/>
      <point x="483" y="418" type="line"/>
      <point x="455" y="454" type="line"/>
      <point x="367" y="381" type="line"/>
      <point x="346" y="400"/>
      <point x="316" y="410"/>
      <point x="282" y="410" type="curve" smooth="yes"/>
      <point x="248" y="410"/>
      <point x="214" y="400"/>
      <point x="183" y="381" type="curve"/>
      <point x="126" y="454" type="line"/>
      <point x="82" y="418" type="line"/>
      <point x="139" y="345" type="line"/>
      <point x="106" y="311"/>
      <point x="84" y="265"/>
      <point x="84" y="218" type="curve" smooth="yes"/>
      <point x="84" y="196"/>
      <point x="89" y="176"/>
      <point x="98" y="159" type="curve"/>
      <point x="12" y="88" type="line"/>
      <point x="41" y="52" type="line"/>
      <point x="125" y="122" type="line"/>
      <point x="148" y="103"/>
      <point x="178" y="91"/>
      <point x="214" y="91" type="curve" smooth="yes"/>
      <point x="249" y="91"/>
      <point x="284" y="103"/>
      <point x="314" y="122" type="curve"/>
      <point x="370" y="53" type="line"/>
      <point x="413" y="89" type="line"/>
      <point x="358" y="159" type="line"/>
      <point x="391" y="197"/>
      <point x="410" y="239"/>
    </contour>
    <contour>
      <point x="225" y="142" type="curve" smooth="yes"/>
      <point x="173" y="142"/>
      <point x="136" y="179"/>
      <point x="136" y="228" type="curve" smooth="yes"/>
      <point x="136" y="298"/>
      <point x="204" y="359"/>
      <point x="271" y="359" type="curve" smooth="yes"/>
      <point x="323" y="359"/>
      <point x="358" y="323"/>
      <point x="358" y="274" type="curve" smooth="yes"/>
      <point x="358" y="204"/>
      <point x="292" y="142"/>
    </contour>
  </outline>
</glyph>
<glyph name="yen" format="1">
  <advance width="585"/>
  <unicode hex="00A5"/>
  <outline>
    <contour>
      <point x="263" y="288" type="line"/>
      <point x="241" y="188" type="line"/>
      <point x="101" y="188" type="line"/>
      <point x="80" y="134" type="line"/>
      <point x="230" y="134" type="line"/>
      <point x="202" y="0" type="line"/>
      <point x="258" y="10" type="line"/>
      <point x="284" y="134" type="line"/>
      <point x="423" y="134" type="line"/>
      <point x="444" y="188" type="line"/>
      <point x="295" y="188" type="line"/>
      <point x="317" y="288" type="line"/>
      <point x="456" y="288" type="line"/>
      <point x="477" y="341" type="line"/>
      <point x="358" y="341" type="line"/>
      <point x="608" y="689" type="line"/>
      <point x="548" y="689" type="line"/>
      <point x="303" y="348" type="line"/>
      <point x="214" y="689" type="line"/>
      <point x="155" y="689" type="line"/>
      <point x="245" y="341" type="line"/>
      <point x="134" y="341" type="line"/>
      <point x="113" y="288" type="line"/>
    </contour>
  </outline>
</glyph>
<glyph name="section" format="1">
  <advance width="475"/>
  <unicode hex="00A7"/>
  <outline>
    <contour>
      <point x="421" y="318" type="curve" smooth="yes"/>
      <point x="421" y="389"/>
      <point x="360" y="410"/>
      <point x="284" y="436" type="curve" smooth="yes"/>
      <point x="250" y="447"/>
      <point x="194" y="463"/>
      <point x="194" y="510" type="curve" smooth="yes"/>
      <point x="194" y="564"/>
      <point x="254" y="594"/>
      <point x="332" y="594" type="curve" smooth="yes"/>
      <point x="393" y="594"/>
      <point x="419" y="574"/>
      <point x="419" y="544" type="curve" smooth="yes"/>
      <point x="419" y="533"/>
      <point x="414" y="520"/>
      <point x="413" y="515" type="curve"/>
      <point x="463" y="507" type="line"/>
      <point x="467" y="517"/>
      <point x="474" y="537"/>
      <point x="474" y="554" type="curve" smooth="yes"/>
      <point x="474" y="606"/>
      <point x="431" y="644"/>
      <point x="339" y="644" type="curve" smooth="yes"/>
      <point x="266" y="644"/>
      <point x="141" y="612"/>
      <point x="141" y="500" type="curve" smooth="yes"/>
      <point x="141" y="482"/>
      <point x="146" y="466"/>
      <point x="155" y="452" type="curve"/>
      <point x="131" y="429"/>
      <point x="112" y="397"/>
      <point x="112" y="354" type="curve" smooth="yes"/>
      <point x="112" y="300"/>
      <point x="153" y="269"/>
      <point x="238" y="241" type="curve" smooth="yes"/>
      <point x="314" y="216"/>
      <point x="337" y="194"/>
      <point x="337" y="162" type="curve" smooth="yes"/>
      <point x="337" y="146"/>
      <point x="325" y="53"/>
      <point x="186" y="53" type="curve" smooth="yes"/>
      <point x="141" y="53"/>
      <point x="93" y="82"/>
      <point x="86" y="137" type="curve"/>
      <point x="32" y="129" type="line"/>
      <point x="31" y="126"/>
      <point x="31" y="123"/>
      <point x="31" y="120" type="curve" smooth="yes"/>
      <point x="31" y="81"/>
      <point x="74" y="0"/>
      <point x="187" y="0" type="curve" smooth="yes"/>
      <point x="318" y="0"/>
      <point x="391" y="96"/>
      <point x="391" y="177" type="curve" smooth="yes"/>
      <point x="391" y="193"/>
      <point x="388" y="206"/>
      <point x="382" y="218" type="curve"/>
      <point x="407" y="249"/>
      <point x="421" y="282"/>
    </contour>
    <contour>
      <point x="349" y="253" type="curve"/>
      <point x="325" y="269"/>
      <point x="291" y="281"/>
      <point x="255" y="293" type="curve" smooth="yes"/>
      <point x="220" y="304"/>
      <point x="164" y="320"/>
      <point x="164" y="367" type="curve" smooth="yes"/>
      <point x="164" y="387"/>
      <point x="174" y="405"/>
      <point x="190" y="419" type="curve"/>
      <point x="209" y="406"/>
      <point x="235" y="394"/>
      <point x="267" y="384" type="curve" smooth="yes"/>
      <point x="343" y="359"/>
      <point x="366" y="338"/>
      <point x="367" y="306" type="curve" smooth="yes"/>
      <point x="367" y="294"/>
      <point x="366" y="276"/>
    </contour>
  </outline>
</glyph>
<glyph name="dieresis" format="1">
  <advance width="500"/>
  <unicode hex="00A8"/>
  <outline>
    <contour>
      <point x="296" y="663" type="line"/>
      <point x="221" y="653" type="line"/>
      <point x="195" y="571" type="line"/>
      <point x="271" y="581" type="line"/>
    </contour>
    <contour>
      <point x="456" y="663" type="line"/>
      <point x="381" y="653" type="line"/>
      <point x="355" y="571" type="line"/>
      <point x="431" y="581" type="line"/>
    </contour>
  </outline>
</glyph>
<glyph name="ordfeminine" format="1">
  <advance width="250"/>
  <unicode hex="00AA"/>
  <outline>
    <contour>
      <point x="330" y="649" type="curve"/>
      <point x="270" y="362" type="line"/>
      <point x="218" y="352" type="line"/>
      <point x="224" y="380" type="line"/>
      <point x="193" y="365"/>
      <point x="166" y="358"/>
      <point x="142" y="358" type="curve" smooth="yes"/>
      <point x="82" y="358"/>
      <point x="46" y="399"/>
      <point x="46" y="459" type="curve" smooth="yes"/>
      <point x="46" y="566"/>
      <point x="140" y="677"/>
      <point x="238" y="677" type="curve" smooth="yes"/>
      <point x="262" y="677"/>
      <point x="304" y="669"/>
    </contour>
    <contour>
      <point x="228" y="628" type="curve" smooth="yes"/>
      <point x="155" y="628"/>
      <point x="97" y="538"/>
      <point x="97" y="467" type="curve" smooth="yes"/>
      <point x="97" y="430"/>
      <point x="117" y="407"/>
      <point x="150" y="407" type="curve" smooth="yes"/>
      <point x="182" y="407"/>
      <point x="220" y="428"/>
      <point x="236" y="438" type="curve"/>
      <point x="277" y="618" type="line"/>
      <point x="258" y="624"/>
      <point x="250" y="628"/>
    </contour>
  </outline>
</glyph>
<glyph name="logicalnot" format="1">
  <advance width="516"/>
  <unicode hex="00AC"/>
  <outline>
    <contour>
      <point x="364" y="114" type="line"/>
      <point x="397" y="265" type="line"/>
      <point x="72" y="265" type="line"/>
      <point x="93" y="316" type="line"/>
      <point x="459" y="316" type="line"/>
      <point x="418" y="131" type="line"/>
    </contour>
  </outline>
</glyph>
<glyph name="uni00AD" format="1">
  <advance width="442"/>
  <unicode hex="00AD"/>
  <outline>
    <contour>
      <point x="377" y="281" type="line"/>
      <point x="85" y="281" type="line"/>
      <point x="64" y="227" type="line"/>
      <point x="356" y="227" type="line"/>
    </contour>
  </outline>
</glyph>
<glyph name="registered" format="1">
  <advance width="576"/>
  <unicode hex="00AE"/>
  <outline>
    <contour>
      <point x="283" y="236" type="curve" smooth="yes"/>
      <point x="177" y="236"/>
      <point x="104" y="313"/>
      <point x="104" y="415" type="curve" smooth="yes"/>
      <point x="104" y="560"/>
      <point x="242" y="690"/>
      <point x="379" y="690" type="curve" smooth="yes"/>
      <point x="485" y="690"/>
      <point x="558" y="613"/>
      <point x="558" y="510" type="curve" smooth="yes"/>
      <point x="558" y="365"/>
      <point x="419" y="236"/>
    </contour>
    <contour>
      <point x="369" y="644" type="curve" smooth="yes"/>
      <point x="260" y="644"/>
      <point x="151" y="541"/>
      <point x="151" y="424" type="curve" smooth="yes"/>
      <point x="151" y="343"/>
      <point x="208" y="282"/>
      <point x="292" y="282" type="curve" smooth="yes"/>
      <point x="401" y="282"/>
      <point x="511" y="385"/>
      <point x="511" y="501" type="curve" smooth="yes"/>
      <point x="511" y="583"/>
      <point x="453" y="644"/>
    </contour>
    <contour>
      <point x="344" y="447" type="curve"/>
      <point x="415" y="389" type="line"/>
      <point x="377" y="355" type="line"/>
      <point x="275" y="437" type="line"/>
      <point x="248" y="365" type="line"/>
      <point x="199" y="360" type="line"/>
      <point x="275" y="562" type="line" smooth="yes"/>
      <point x="281" y="579"/>
      <point x="284" y="590"/>
      <point x="359" y="590" type="curve" smooth="yes"/>
      <point x="425" y="590"/>
      <point x="460" y="568"/>
      <point x="460" y="533" type="curve" smooth="yes"/>
      <point x="460" y="482"/>
      <point x="398" y="458"/>
    </contour>
    <contour>
      <point x="315" y="543" type="curve"/>
      <point x="294" y="485" type="line"/>
      <point x="366" y="492"/>
      <point x="413" y="512"/>
      <point x="413" y="522" type="curve" smooth="yes"/>
      <point x="413" y="538"/>
      <point x="376" y="544"/>
      <point x="343" y="544" type="curve" smooth="yes"/>
      <point x="334" y="544"/>
      <point x="324" y="544"/>
    </contour>
  </outline>
</glyph>
<glyph name="macron" format="1">
  <advance width="500"/>
  <unicode hex="00AF"/>
  <outline>
    <contour>
      <point x="440" y="587" type="line"/>
      <point x="462" y="641" type="line"/>
      <point x="210" y="641" type="line"/>
      <point x="188" y="587" type="line"/>
    </contour>
  </outline>
</glyph>
<glyph name="twosuperior" format="1">
  <advance width="237"/>
  <unicode hex="00B2"/>
  <outline>
    <contour>
      <point x="129" y="718" type="line"/>
      <point x="163" y="760"/>
      <point x="200" y="775"/>
      <point x="229" y="775" type="curve" smooth="yes"/>
      <point x="258" y="775"/>
      <point x="284" y="760"/>
      <point x="284" y="733" type="curve" smooth="yes"/>
      <point x="284" y="700"/>
      <point x="252" y="668"/>
      <point x="177" y="625" type="curve" smooth="yes"/>
      <point x="102" y="581"/>
      <point x="60" y="544"/>
      <point x="45" y="461" type="curve" smooth="yes"/>
      <point x="41" y="439" type="line"/>
      <point x="267" y="439" type="line"/>
      <point x="284" y="484" type="line"/>
      <point x="96" y="484" type="line"/>
      <point x="113" y="533"/>
      <point x="140" y="558"/>
      <point x="194" y="588" type="curve" smooth="yes"/>
      <point x="254" y="622"/>
      <point x="330" y="677"/>
      <point x="330" y="744" type="curve" smooth="yes"/>
      <point x="330" y="779"/>
      <point x="310" y="821"/>
      <point x="239" y="821" type="curve" smooth="yes"/>
      <point x="188" y="821"/>
      <point x="135" y="789"/>
      <point x="105" y="754" type="curve"/>
    </contour>
  </outline>
</glyph>
<glyph name="threesuperior" format="1">
  <advance width="236"/>
  <unicode hex="00B3"/>
  <outline>
    <contour>
      <point x="143" y="738" type="line"/>
      <point x="173" y="763"/>
      <point x="202" y="773"/>
      <point x="225" y="773" type="curve" smooth="yes"/>
      <point x="255" y="773"/>
      <point x="282" y="759"/>
      <point x="282" y="737" type="curve" smooth="yes"/>
      <point x="282" y="685"/>
      <point x="201" y="671"/>
      <point x="169" y="671" type="curve"/>
      <point x="163" y="627" type="line"/>
      <point x="172" y="627" type="line" smooth="yes"/>
      <point x="231" y="627"/>
      <point x="256" y="604"/>
      <point x="256" y="572" type="curve" smooth="yes"/>
      <point x="256" y="498"/>
      <point x="184" y="483"/>
      <point x="166" y="483" type="curve" smooth="yes"/>
      <point x="123" y="483"/>
      <point x="102" y="504"/>
      <point x="102" y="541" type="curve"/>
      <point x="56" y="523" type="line"/>
      <point x="60" y="456"/>
      <point x="115" y="438"/>
      <point x="157" y="438" type="curve" smooth="yes"/>
      <point x="202" y="438"/>
      <point x="302" y="477"/>
      <point x="302" y="582" type="curve" smooth="yes"/>
      <point x="302" y="613"/>
      <point x="288" y="635"/>
      <point x="264" y="653" type="curve"/>
      <point x="302" y="674"/>
      <point x="329" y="708"/>
      <point x="329" y="746" type="curve" smooth="yes"/>
      <point x="329" y="787"/>
      <point x="291" y="818"/>
      <point x="234" y="818" type="curve" smooth="yes"/>
      <point x="184" y="818"/>
      <point x="143" y="791"/>
      <point x="119" y="771" type="curve"/>
    </contour>
  </outline>
</glyph>
<glyph name="paragraph" format="1">
  <advance width="559"/>
  <unicode hex="00B6"/>
  <outline>
    <contour>
      <point x="457" y="729" type="curve"/>
      <point x="457" y="729"/>
      <point x="476" y="732"/>
      <point x="477" y="732" type="curve"/>
      <point x="479" y="785" type="line"/>
      <point x="323" y="758"/>
      <point x="110" y="662"/>
      <point x="110" y="480" type="curve" smooth="yes"/>
      <point x="110" y="362"/>
      <point x="230" y="349"/>
      <point x="313" y="349" type="curve"/>
      <point x="276" y="227"/>
      <point x="226" y="82"/>
      <point x="160" y="-79" type="curve"/>
      <point x="216" y="-75" type="line"/>
      <point x="387" y="346"/>
      <point x="448" y="661"/>
    </contour>
    <contour>
      <point x="573" y="739" type="curve"/>
      <point x="518" y="735" type="line"/>
      <point x="518" y="730"/>
      <point x="465" y="387"/>
      <point x="271" y="-80" type="curve"/>
      <point x="329" y="-75" type="line"/>
      <point x="523" y="399"/>
      <point x="571" y="737"/>
    </contour>
  </outline>
</glyph>
<glyph name="cedilla" format="1">
  <advance width="500"/>
  <unicode hex="00B8"/>
  <outline>
    <contour>
      <point x="182" y="29" type="line"/>
      <point x="154" y="27" type="line"/>
      <point x="115" y="-42" type="line"/>
      <point x="137" y="-72" type="line"/>
      <point x="143" y="-67"/>
      <point x="159" y="-61"/>
      <point x="172" y="-61" type="curve" smooth="yes"/>
      <point x="195" y="-61"/>
      <point x="211" y="-77"/>
      <point x="211" y="-99" type="curve" smooth="yes"/>
      <point x="211" y="-131"/>
      <point x="181" y="-159"/>
      <point x="151" y="-159" type="curve" smooth="yes"/>
      <point x="135" y="-159"/>
      <point x="116" y="-149"/>
      <point x="114" y="-136" type="curve"/>
      <point x="77" y="-166" type="line"/>
      <point x="90" y="-188"/>
      <point x="113" y="-201"/>
      <point x="142" y="-201" type="curve" smooth="yes"/>
      <point x="199" y="-201"/>
      <point x="254" y="-148"/>
      <point x="254" y="-89" type="curve" smooth="yes"/>
      <point x="254" y="-46"/>
      <point x="221" y="-19"/>
      <point x="173" y="-19" type="curve" smooth="yes"/>
      <point x="169" y="-19" type="line"/>
    </contour>
  </outline>
</glyph>
<glyph name="ordmasculine" format="1">
  <advance width="285"/>
  <unicode hex="00BA"/>
  <outline>
    <contour>
      <point x="153" y="356" type="curve" smooth="yes"/>
      <point x="85" y="356"/>
      <point x="48" y="405"/>
      <point x="48" y="468" type="curve" smooth="yes"/>
      <point x="48" y="579"/>
      <point x="148" y="681"/>
      <point x="241" y="681" type="curve" smooth="yes"/>
      <point x="304" y="681"/>
      <point x="345" y="630"/>
      <point x="345" y="565" type="curve" smooth="yes"/>
      <point x="345" y="458"/>
      <point x="243" y="356"/>
    </contour>
    <contour>
      <point x="228" y="634" type="curve" smooth="yes"/>
      <point x="171" y="634"/>
      <point x="101" y="558"/>
      <point x="101" y="477" type="curve" smooth="yes"/>
      <point x="101" y="433"/>
      <point x="125" y="402"/>
      <point x="163" y="402" type="curve" smooth="yes"/>
      <point x="219" y="402"/>
      <point x="292" y="476"/>
      <point x="292" y="553" type="curve" smooth="yes"/>
      <point x="292" y="596"/>
      <point x="269" y="634"/>
    </contour>
  </outline>
</glyph>
<glyph name="questiondown" format="1">
  <advance width="501"/>
  <unicode hex="00BF"/>
  <outline>
    <contour>
      <point x="338" y="621" type="line"/>
      <point x="363" y="703" type="line"/>
      <point x="421" y="713" type="line"/>
      <point x="397" y="631" type="line"/>
    </contour>
    <contour>
      <point x="166" y="0" type="curve" smooth="yes"/>
      <point x="52" y="0"/>
      <point x="-17" y="62"/>
      <point x="-17" y="158" type="curve" smooth="yes"/>
      <point x="-17" y="297"/>
      <point x="102" y="373"/>
      <point x="169" y="424" type="curve" smooth="yes"/>
      <point x="345" y="556" type="line"/>
      <point x="361" y="508" type="line"/>
      <point x="192" y="381" type="line" smooth="yes"/>
      <point x="129" y="334"/>
      <point x="37" y="275"/>
      <point x="37" y="170" type="curve" smooth="yes"/>
      <point x="37" y="109"/>
      <point x="73" y="54"/>
      <point x="177" y="54" type="curve" smooth="yes"/>
      <point x="272" y="54"/>
      <point x="344" y="141"/>
      <point x="353" y="152" type="curve"/>
      <point x="384" y="113" type="line"/>
      <point x="355" y="80"/>
      <point x="273" y="0"/>
    </contour>
  </outline>
</glyph>
<glyph name="Agrave" format="1">
  <advance width="623"/>
  <unicode hex="00C0"/>
  <outline>
    <contour>
      <point x="449" y="680" type="line"/>
      <point x="376" y="667" type="line"/>
      <point x="133" y="253" type="line"/>
      <point x="55" y="238" type="line"/>
      <point x="55" y="184" type="line"/>
      <point x="97" y="192" type="line"/>
      <point x="0" y="26" type="line"/>
      <point x="44" y="0" type="line"/>
      <point x="164" y="206" type="line"/>
      <point x="440" y="261" type="line"/>
      <point x="471" y="1" type="line"/>
      <point x="525" y="33" type="line"/>
    </contour>
    <contour>
      <point x="200" y="267" type="line"/>
      <point x="400" y="607" type="line"/>
      <point x="434" y="313" type="line"/>
    </contour>
    <contour>
      <point x="521" y="754" type="line"/>
      <point x="426" y="900" type="line"/>
      <point x="359" y="866" type="line"/>
      <point x="469" y="726" type="line"/>
    </contour>
  </outline>
</glyph>
<glyph name="Aacute" format="1">
  <advance width="623"/>
  <unicode hex="00C1"/>
  <outline>
    <contour>
      <point x="449" y="680" type="line"/>
      <point x="376" y="667" type="line"/>
      <point x="133" y="253" type="line"/>
      <point x="55" y="238" type="line"/>
      <point x="55" y="184" type="line"/>
      <point x="97" y="192" type="line"/>
      <point x="0" y="26" type="line"/>
      <point x="44" y="0" type="line"/>
      <point x="164" y="206" type="line"/>
      <point x="440" y="261" type="line"/>
      <point x="471" y="1" type="line"/>
      <point x="525" y="33" type="line"/>
    </contour>
    <contour>
      <point x="200" y="267" type="line"/>
      <point x="400" y="607" type="line"/>
      <point x="434" y="313" type="line"/>
    </contour>
    <contour>
      <point x="334" y="771" type="line"/>
      <point x="367" y="736" type="line"/>
      <point x="553" y="848" type="line"/>
      <point x="510" y="893" type="line"/>
    </contour>
  </outline>
</glyph>
<glyph name="Acircumflex" format="1">
  <advance width="623"/>
  <unicode hex="00C2"/>
  <outline>
    <contour>
      <point x="449" y="680" type="line"/>
      <point x="376" y="667" type="line"/>
      <point x="133" y="253" type="line"/>
      <point x="55" y="238" type="line"/>
      <point x="55" y="184" type="line"/>
      <point x="97" y="192" type="line"/>
      <point x="0" y="26" type="line"/>
      <point x="44" y="0" type="line"/>
      <point x="164" y="206" type="line"/>
      <point x="440" y="261" type="line"/>
      <point x="471" y="1" type="line"/>
      <point x="525" y="33" type="line"/>
    </contour>
    <contour>
      <point x="200" y="267" type="line"/>
      <point x="400" y="607" type="line"/>
      <point x="434" y="313" type="line"/>
    </contour>
    <contour>
      <point x="315" y="718" type="line"/>
      <point x="448" y="806" type="line"/>
      <point x="525" y="719" type="line"/>
      <point x="570" y="759" type="line"/>
      <point x="467" y="881" type="line"/>
      <point x="291" y="760" type="line"/>
    </contour>
  </outline>
</glyph>
<glyph name="Aring" format="1">
  <advance width="623"/>
  <unicode hex="00C5"/>
  <outline>
    <contour>
      <point x="410" y="721" type="curve" smooth="yes"/>
      <point x="351" y="721"/>
      <point x="315" y="757"/>
      <point x="315" y="804" type="curve" smooth="yes"/>
      <point x="315" y="875"/>
      <point x="396" y="940"/>
      <point x="476" y="940" type="curve" smooth="yes"/>
      <point x="537" y="940"/>
      <point x="570" y="900"/>
      <point x="570" y="856" type="curve" smooth="yes"/>
      <point x="570" y="770"/>
      <point x="476" y="721"/>
    </contour>
    <contour>
      <point x="463" y="893" type="curve" smooth="yes"/>
      <point x="427" y="893"/>
      <point x="358" y="864"/>
      <point x="358" y="813" type="curve" smooth="yes"/>
      <point x="358" y="785"/>
      <point x="385" y="767"/>
      <point x="422" y="767" type="curve" smooth="yes"/>
      <point x="467" y="767"/>
      <point x="528" y="800"/>
      <point x="528" y="844" type="curve" smooth="yes"/>
      <point x="528" y="871"/>
      <point x="500" y="893"/>
    </contour>
    <contour>
      <point x="449" y="680" type="line"/>
      <point x="525" y="33" type="line"/>
      <point x="471" y="1" type="line"/>
      <point x="440" y="261" type="line"/>
      <point x="164" y="206" type="line"/>
      <point x="44" y="0" type="line"/>
      <point x="0" y="26" type="line"/>
      <point x="97" y="192" type="line"/>
      <point x="55" y="184" type="line"/>
      <point x="55" y="238" type="line"/>
      <point x="133" y="253" type="line"/>
      <point x="376" y="667" type="line"/>
    </contour>
    <contour>
      <point x="200" y="267" type="line"/>
      <point x="434" y="313" type="line"/>
      <point x="400" y="607" type="line"/>
    </contour>
  </outline>
</glyph>
<glyph name="Ccedilla" format="1">
  <advance width="631"/>
  <unicode hex="00C7"/>
  <outline>
    <contour>
      <point x="255" y="-159" type="curve" smooth="yes"/>
      <point x="239" y="-159"/>
      <point x="220" y="-149"/>
      <point x="218" y="-136" type="curve"/>
      <point x="181" y="-166" type="line"/>
      <point x="194" y="-188"/>
      <point x="217" y="-201"/>
      <point x="246" y="-201" type="curve" smooth="yes"/>
      <point x="303" y="-201"/>
      <point x="358" y="-148"/>
      <point x="358" y="-89" type="curve" smooth="yes"/>
      <point x="358" y="-46"/>
      <point x="325" y="-19"/>
      <point x="277" y="-19" type="curve" smooth="yes"/>
      <point x="273" y="-19" type="line"/>
      <point x="277" y="-1" type="line"/>
      <point x="381" y="-1"/>
      <point x="486" y="49"/>
      <point x="553" y="131" type="curve"/>
      <point x="523" y="170" type="line"/>
      <point x="467" y="94"/>
      <point x="384" y="52"/>
      <point x="290" y="52" type="curve" smooth="yes"/>
      <point x="179" y="52"/>
      <point x="104" y="134"/>
      <point x="104" y="241" type="curve" smooth="yes"/>
      <point x="104" y="366"/>
      <point x="262" y="628"/>
      <point x="418" y="628" type="curve" smooth="yes"/>
      <point x="499" y="628"/>
      <point x="537" y="594"/>
      <point x="557" y="564" type="curve"/>
      <point x="552" y="539" type="line"/>
      <point x="598" y="539" type="line"/>
      <point x="623" y="658" type="line"/>
      <point x="577" y="658" type="line"/>
      <point x="572" y="635" type="line"/>
      <point x="539" y="665"/>
      <point x="491" y="681"/>
      <point x="435" y="681" type="curve" smooth="yes"/>
      <point x="229" y="681"/>
      <point x="50" y="383"/>
      <point x="50" y="227" type="curve" smooth="yes"/>
      <point x="50" y="105"/>
      <point x="127" y="15"/>
      <point x="243" y="1" type="curve"/>
      <point x="219" y="-42" type="line"/>
      <point x="241" y="-72" type="line"/>
      <point x="247" y="-67"/>
      <point x="263" y="-61"/>
      <point x="276" y="-61" type="curve" smooth="yes"/>
      <point x="299" y="-61"/>
      <point x="315" y="-77"/>
      <point x="315" y="-99" type="curve" smooth="yes"/>
      <point x="315" y="-131"/>
      <point x="285" y="-159"/>
    </contour>
  </outline>
</glyph>
<glyph name="Igrave" format="1">
  <advance width="437"/>
  <unicode hex="00CC"/>
  <outline>
    <contour>
      <point x="444" y="625" type="line"/>
      <point x="466" y="681" type="line"/>
      <point x="159" y="681" type="line"/>
      <point x="137" y="625" type="line"/>
      <point x="270" y="625" type="line"/>
      <point x="149" y="56" type="line"/>
      <point x="26" y="56" type="line"/>
      <point x="5" y="0" type="line"/>
      <point x="312" y="0" type="line"/>
      <point x="333" y="56" type="line"/>
      <point x="205" y="56" type="line"/>
      <point x="326" y="625" type="line"/>
    </contour>
    <contour>
      <point x="409" y="754" type="line"/>
      <point x="314" y="900" type="line"/>
      <point x="247" y="866" type="line"/>
      <point x="357" y="726" type="line"/>
    </contour>
  </outline>
</glyph>
<glyph name="Icircumflex" format="1">
  <advance width="437"/>
  <unicode hex="00CE"/>
  <outline>
    <contour>
      <point x="444" y="625" type="line"/>
      <point x="466" y="681" type="line"/>
      <point x="159" y="681" type="line"/>
      <point x="137" y="625" type="line"/>
      <point x="270" y="625" type="line"/>
      <point x="149" y="56" type="line"/>
      <point x="26" y="56" type="line"/>
      <point x="5" y="0" type="line"/>
      <point x="312" y="0" type="line"/>
      <point x="333" y="56" type="line"/>
      <point x="205" y="56" type="line"/>
      <point x="326" y="625" type="line"/>
    </contour>
    <contour>
      <point x="211" y="718" type="line"/>
      <point x="344" y="806" type="line"/>
      <point x="421" y="719" type="line"/>
      <point x="466" y="759" type="line"/>
      <point x="363" y="881" type="line"/>
      <point x="187" y="760" type="line"/>
    </contour>
  </outline>
</glyph>
<glyph name="Idieresis" format="1">
  <advance width="437"/>
  <unicode hex="00CF"/>
  <outline>
    <contour>
      <point x="444" y="625" type="line"/>
      <point x="466" y="681" type="line"/>
      <point x="159" y="681" type="line"/>
      <point x="137" y="625" type="line"/>
      <point x="270" y="625" type="line"/>
      <point x="149" y="56" type="line"/>
      <point x="26" y="56" type="line"/>
      <point x="5" y="0" type="line"/>
      <point x="312" y="0" type="line"/>
      <point x="333" y="56" type="line"/>
      <point x="205" y="56" type="line"/>
      <point x="326" y="625" type="line"/>
    </contour>
    <contour>
      <point x="304" y="819" type="line"/>
      <point x="228" y="809" type="line"/>
      <point x="202" y="727" type="line"/>
      <point x="278" y="737" type="line"/>
    </contour>
    <contour>
      <point x="465" y="819" type="line"/>
      <point x="389" y="809" type="line"/>
      <point x="363" y="727" type="line"/>
      <point x="439" y="737" type="line"/>
    </contour>
  </outline>
</glyph>
<glyph name="Eth" format="1">
  <advance width="676"/>
  <unicode hex="00D0"/>
  <outline>
    <contour>
      <point x="70" y="1" type="line"/>
      <point x="107" y="-10"/>
      <point x="170" y="-15"/>
      <point x="208" y="-15" type="curve" smooth="yes"/>
      <point x="461" y="-15"/>
      <point x="634" y="141"/>
      <point x="634" y="390" type="curve" smooth="yes"/>
      <point x="634" y="542"/>
      <point x="523" y="680"/>
      <point x="240" y="680" type="curve" smooth="yes"/>
      <point x="214" y="680" type="line"/>
      <point x="144" y="350" type="line"/>
      <point x="55" y="350" type="line"/>
      <point x="32" y="291" type="line"/>
      <point x="131" y="291" type="line"/>
    </contour>
    <contour>
      <point x="285" y="291" type="line"/>
      <point x="308" y="350" type="line"/>
      <point x="198" y="350" type="line"/>
      <point x="257" y="627" type="line"/>
      <point x="298" y="626"/>
      <point x="386" y="617"/>
      <point x="459" y="579" type="curve" smooth="yes"/>
      <point x="539" y="537"/>
      <point x="579" y="470"/>
      <point x="579" y="380" type="curve" smooth="yes"/>
      <point x="579" y="245"/>
      <point x="515" y="137"/>
      <point x="425" y="86" type="curve" smooth="yes"/>
      <point x="355" y="47"/>
      <point x="274" y="39"/>
      <point x="220" y="39" type="curve" smooth="yes"/>
      <point x="183" y="39"/>
      <point x="151" y="42"/>
      <point x="133" y="45" type="curve"/>
      <point x="185" y="291" type="line"/>
    </contour>
  </outline>
</glyph>
<glyph name="Ograve" format="1">
  <advance width="660"/>
  <unicode hex="00D2"/>
  <outline>
    <contour>
      <point x="538" y="754" type="line"/>
      <point x="443" y="900" type="line"/>
      <point x="376" y="866" type="line"/>
      <point x="486" y="726" type="line"/>
    </contour>
    <contour>
      <point x="254" y="0" type="curve" smooth="yes"/>
      <point x="428" y="0"/>
      <point x="632" y="219"/>
      <point x="632" y="453" type="curve" smooth="yes"/>
      <point x="632" y="585"/>
      <point x="561" y="684"/>
      <point x="441" y="684" type="curve" smooth="yes"/>
      <point x="267" y="684"/>
      <point x="62" y="465"/>
      <point x="62" y="232" type="curve" smooth="yes"/>
      <point x="62" y="100"/>
      <point x="133" y="0"/>
    </contour>
    <contour>
      <point x="423" y="632" type="curve" smooth="yes"/>
      <point x="521" y="632"/>
      <point x="576" y="542"/>
      <point x="576" y="435" type="curve" smooth="yes"/>
      <point x="576" y="236"/>
      <point x="402" y="52"/>
      <point x="265" y="52" type="curve" smooth="yes"/>
      <point x="171" y="52"/>
      <point x="116" y="132"/>
      <point x="116" y="241" type="curve" smooth="yes"/>
      <point x="116" y="449"/>
      <point x="289" y="632"/>
    </contour>
  </outline>
</glyph>
<glyph name="Otilde" format="1">
  <advance width="660"/>
  <unicode hex="00D5"/>
  <outline>
    <contour>
      <point x="254" y="0" type="curve" smooth="yes"/>
      <point x="428" y="0"/>
      <point x="632" y="219"/>
      <point x="632" y="453" type="curve" smooth="yes"/>
      <point x="632" y="585"/>
      <point x="561" y="684"/>
      <point x="441" y="684" type="curve" smooth="yes"/>
      <point x="267" y="684"/>
      <point x="62" y="465"/>
      <point x="62" y="232" type="curve" smooth="yes"/>
      <point x="62" y="100"/>
      <point x="133" y="0"/>
    </contour>
    <contour>
      <point x="423" y="632" type="curve" smooth="yes"/>
      <point x="521" y="632"/>
      <point x="576" y="542"/>
      <point x="576" y="435" type="curve" smooth="yes"/>
      <point x="576" y="236"/>
      <point x="402" y="52"/>
      <point x="265" y="52" type="curve" smooth="yes"/>
      <point x="171" y="52"/>
      <point x="116" y="132"/>
      <point x="116" y="241" type="curve" smooth="yes"/>
      <point x="116" y="449"/>
      <point x="289" y="632"/>
    </contour>
    <contour>
      <point x="525" y="762" type="curve" smooth="yes"/>
      <point x="512" y="762"/>
      <point x="505" y="776"/>
      <point x="497" y="794" type="curve" smooth="yes"/>
      <point x="483" y="826"/>
      <point x="466" y="870"/>
      <point x="412" y="870" type="curve" smooth="yes"/>
      <point x="351" y="870"/>
      <point x="306" y="813"/>
      <point x="280" y="763" type="curve"/>
      <point x="325" y="745" type="line"/>
      <point x="336" y="770"/>
      <point x="373" y="829"/>
      <point x="404" y="829" type="curve" smooth="yes"/>
      <point x="418" y="829"/>
      <point x="426" y="811"/>
      <point x="436" y="789" type="curve" smooth="yes"/>
      <point x="450" y="758"/>
      <point x="469" y="721"/>
      <point x="517" y="721" type="curve" smooth="yes"/>
      <point x="568" y="721"/>
      <point x="626" y="772"/>
      <point x="654" y="837" type="curve"/>
      <point x="609" y="853" type="line"/>
      <point x="594" y="824"/>
      <point x="558" y="762"/>
    </contour>
  </outline>
</glyph>
<glyph name="Oslash" format="1">
  <advance width="660"/>
  <unicode hex="00D8"/>
  <outline>
    <contour>
      <point x="575" y="626" type="line"/>
      <point x="615" y="585"/>
      <point x="632" y="522"/>
      <point x="632" y="455" type="curve" smooth="yes"/>
      <point x="632" y="220"/>
      <point x="429" y="-1"/>
      <point x="253" y="-1" type="curve" smooth="yes"/>
      <point x="205" y="-1"/>
      <point x="162" y="16"/>
      <point x="129" y="46" type="curve"/>
      <point x="67" y="-33" type="line"/>
      <point x="28" y="-7" type="line"/>
      <point x="98" y="84" type="line"/>
      <point x="74" y="123"/>
      <point x="61" y="172"/>
      <point x="61" y="227" type="curve" smooth="yes"/>
      <point x="61" y="462"/>
      <point x="266" y="683"/>
      <point x="441" y="683" type="curve" smooth="yes"/>
      <point x="477" y="683"/>
      <point x="510" y="674"/>
      <point x="538" y="656" type="curve"/>
      <point x="602" y="741" type="line"/>
      <point x="642" y="714" type="line"/>
    </contour>
    <contour>
      <point x="137" y="134" type="curve"/>
      <point x="501" y="608" type="line"/>
      <point x="478" y="623"/>
      <point x="452" y="631"/>
      <point x="423" y="631" type="curve" smooth="yes"/>
      <point x="289" y="631"/>
      <point x="116" y="448"/>
      <point x="116" y="240" type="curve" smooth="yes"/>
      <point x="116" y="200"/>
      <point x="123" y="164"/>
    </contour>
    <contour>
      <point x="264" y="51" type="curve" smooth="yes"/>
      <point x="443" y="51"/>
      <point x="576" y="293"/>
      <point x="576" y="432" type="curve" smooth="yes"/>
      <point x="576" y="487"/>
      <point x="562" y="538"/>
      <point x="536" y="575" type="curve"/>
      <point x="164" y="92" type="line"/>
      <point x="190" y="65"/>
      <point x="224" y="51"/>
    </contour>
  </outline>
</glyph>
<glyph name="Yacute" format="1">
  <advance width="628"/>
  <unicode hex="00DD"/>
  <outline>
    <contour>
      <point x="323" y="266" type="line"/>
      <point x="170" y="677" type="line"/>
      <point x="108" y="677" type="line"/>
      <point x="280" y="214" type="line"/>
      <point x="109" y="0" type="line"/>
      <point x="171" y="0" type="line"/>
      <point x="716" y="677" type="line"/>
      <point x="654" y="677" type="line"/>
    </contour>
    <contour>
      <point x="344" y="771" type="line"/>
      <point x="378" y="736" type="line"/>
      <point x="564" y="848" type="line"/>
      <point x="520" y="893" type="line"/>
    </contour>
  </outline>
</glyph>
<glyph name="Thorn" format="1">
  <advance width="506"/>
  <unicode hex="00DE"/>
  <outline>
    <contour>
      <point x="153" y="674" type="line"/>
      <point x="10" y="0" type="line"/>
      <point x="65" y="12" type="line"/>
      <point x="93" y="143" type="line"/>
      <point x="242" y="152"/>
      <point x="506" y="207"/>
      <point x="506" y="418" type="curve" smooth="yes"/>
      <point x="506" y="562"/>
      <point x="314" y="576"/>
      <point x="187" y="576" type="curve"/>
      <point x="210" y="686" type="line"/>
    </contour>
    <contour>
      <point x="106" y="202" type="curve"/>
      <point x="175" y="519" type="line"/>
      <point x="337" y="519"/>
      <point x="449" y="488"/>
      <point x="449" y="401" type="curve" smooth="yes"/>
      <point x="449" y="277"/>
      <point x="292" y="210"/>
    </contour>
  </outline>
</glyph>
<glyph name="germandbls" format="1">
  <advance width="525"/>
  <unicode hex="00DF"/>
  <outline>
    <contour>
      <point x="379" y="361" type="curve"/>
      <point x="440" y="339"/>
      <point x="478" y="285"/>
      <point x="478" y="216" type="curve" smooth="yes"/>
      <point x="478" y="92"/>
      <point x="357" y="-24"/>
      <point x="234" y="-24" type="curve" smooth="yes"/>
      <point x="201" y="-24"/>
      <point x="172" y="-16"/>
      <point x="130" y="10" type="curve"/>
      <point x="163" y="56" type="line"/>
      <point x="199" y="34"/>
      <point x="221" y="28"/>
      <point x="245" y="28" type="curve" smooth="yes"/>
      <point x="333" y="28"/>
      <point x="424" y="112"/>
      <point x="424" y="205" type="curve" smooth="yes"/>
      <point x="424" y="266"/>
      <point x="384" y="320"/>
      <point x="311" y="320" type="curve" smooth="yes"/>
      <point x="303" y="320"/>
      <point x="294" y="319"/>
      <point x="231" y="310" type="curve"/>
      <point x="259" y="364" type="line"/>
      <point x="368" y="379"/>
      <point x="403" y="447"/>
      <point x="403" y="500" type="curve" smooth="yes"/>
      <point x="403" y="550"/>
      <point x="367" y="588"/>
      <point x="314" y="588" type="curve" smooth="yes"/>
      <point x="253" y="588"/>
      <point x="193" y="538"/>
      <point x="180" y="477" type="curve" smooth="yes"/>
      <point x="84" y="26" type="line"/>
      <point x="27" y="0" type="line"/>
      <point x="128" y="477" type="line" smooth="yes"/>
      <point x="147" y="567"/>
      <point x="236" y="640"/>
      <point x="326" y="640" type="curve" smooth="yes"/>
      <point x="403" y="640"/>
      <point x="457" y="585"/>
      <point x="457" y="511" type="curve" smooth="yes"/>
      <point x="457" y="454"/>
      <point x="426" y="400"/>
    </contour>
  </outline>
</glyph>
<glyph name="ae" format="1">
  <advance width="864"/>
  <unicode hex="00E6"/>
  <outline>
    <contour>
      <point x="574" y="0" type="curve" smooth="yes"/>
      <point x="497" y="0"/>
      <point x="435" y="37"/>
      <point x="404" y="95" type="curve"/>
      <point x="386" y="11" type="line"/>
      <point x="328" y="0" type="line"/>
      <point x="339" y="54" type="line"/>
      <point x="300" y="33"/>
      <point x="240" y="7"/>
      <point x="184" y="7" type="curve" smooth="yes"/>
      <point x="92" y="7"/>
      <point x="35" y="69"/>
      <point x="35" y="164" type="curve" smooth="yes"/>
      <point x="35" y="310"/>
      <point x="172" y="513"/>
      <point x="341" y="513" type="curve" smooth="yes"/>
      <point x="396" y="513"/>
      <point x="444" y="495"/>
      <point x="484" y="472" type="curve"/>
      <point x="470" y="406" type="line"/>
      <point x="526" y="464"/>
      <point x="602" y="502"/>
      <point x="680" y="502" type="curve" smooth="yes"/>
      <point x="769" y="502"/>
      <point x="828" y="435"/>
      <point x="834" y="355" type="curve"/>
      <point x="438" y="159" type="line"/>
      <point x="456" y="95"/>
      <point x="510" y="51"/>
      <point x="584" y="51" type="curve" smooth="yes"/>
      <point x="635" y="51"/>
      <point x="688" y="72"/>
      <point x="733" y="111" type="curve"/>
      <point x="763" y="76" type="line"/>
      <point x="706" y="27"/>
      <point x="639" y="0"/>
    </contour>
    <contour>
      <point x="194" y="62" type="curve" smooth="yes"/>
      <point x="254" y="62"/>
      <point x="325" y="103"/>
      <point x="351" y="120" type="curve"/>
      <point x="423" y="436" type="line"/>
      <point x="406" y="444"/>
      <point x="368" y="458"/>
      <point x="334" y="458" type="curve" smooth="yes"/>
      <point x="158" y="458"/>
      <point x="94" y="235"/>
      <point x="94" y="178" type="curve" smooth="yes"/>
      <point x="94" y="119"/>
      <point x="119" y="63"/>
    </contour>
    <contour>
      <point x="670" y="451" type="curve" smooth="yes"/>
      <point x="545" y="451"/>
      <point x="433" y="330"/>
      <point x="433" y="208" type="curve"/>
      <point x="773" y="378" type="line"/>
      <point x="757" y="424"/>
      <point x="717" y="451"/>
    </contour>
  </outline>
</glyph>
<glyph name="ccedilla" format="1">
  <advance width="507"/>
  <unicode hex="00E7"/>
  <outline>
    <contour>
      <point x="179" y="-159" type="curve" smooth="yes"/>
      <point x="163" y="-159"/>
      <point x="144" y="-149"/>
      <point x="142" y="-136" type="curve"/>
      <point x="105" y="-166" type="line"/>
      <point x="118" y="-188"/>
      <point x="141" y="-201"/>
      <point x="170" y="-201" type="curve" smooth="yes"/>
      <point x="227" y="-201"/>
      <point x="282" y="-148"/>
      <point x="282" y="-89" type="curve" smooth="yes"/>
      <point x="282" y="-46"/>
      <point x="249" y="-19"/>
      <point x="201" y="-19" type="curve" smooth="yes"/>
      <point x="197" y="-19" type="line"/>
      <point x="203" y="0" type="line"/>
      <point x="224" y="0" type="line"/>
      <point x="300" y="3"/>
      <point x="373" y="41"/>
      <point x="422" y="97" type="curve"/>
      <point x="391" y="137" type="line"/>
      <point x="353" y="87"/>
      <point x="291" y="52"/>
      <point x="228" y="52" type="curve" smooth="yes"/>
      <point x="182" y="52"/>
      <point x="90" y="76"/>
      <point x="90" y="176" type="curve" smooth="yes"/>
      <point x="90" y="258"/>
      <point x="192" y="450"/>
      <point x="316" y="450" type="curve" smooth="yes"/>
      <point x="362" y="450"/>
      <point x="399" y="429"/>
      <point x="414" y="391" type="curve"/>
      <point x="462" y="430" type="line"/>
      <point x="437" y="477"/>
      <point x="389" y="502"/>
      <point x="325" y="502" type="curve" smooth="yes"/>
      <point x="166" y="502"/>
      <point x="36" y="278"/>
      <point x="36" y="173" type="curve" smooth="yes"/>
      <point x="36" y="88"/>
      <point x="91" y="23"/>
      <point x="170" y="5" type="curve"/>
      <point x="143" y="-42" type="line"/>
      <point x="165" y="-72" type="line"/>
      <point x="171" y="-67"/>
      <point x="187" y="-61"/>
      <point x="200" y="-61" type="curve" smooth="yes"/>
      <point x="223" y="-61"/>
      <point x="239" y="-77"/>
      <point x="239" y="-99" type="curve" smooth="yes"/>
      <point x="239" y="-131"/>
      <point x="209" y="-159"/>
    </contour>
  </outline>
</glyph>
<glyph name="egrave" format="1">
  <advance width="527"/>
  <unicode hex="00E8"/>
  <outline>
    <contour>
      <point x="420" y="585" type="line"/>
      <point x="368" y="557" type="line"/>
      <point x="258" y="697" type="line"/>
      <point x="325" y="731" type="line"/>
    </contour>
    <contour>
      <point x="237" y="0" type="curve" smooth="yes"/>
      <point x="121" y="0"/>
      <point x="42" y="85"/>
      <point x="42" y="197" type="curve" smooth="yes"/>
      <point x="42" y="357"/>
      <point x="191" y="502"/>
      <point x="343" y="502" type="curve" smooth="yes"/>
      <point x="432" y="502"/>
      <point x="491" y="435"/>
      <point x="497" y="355" type="curve"/>
      <point x="101" y="159" type="line"/>
      <point x="119" y="95"/>
      <point x="173" y="51"/>
      <point x="247" y="51" type="curve" smooth="yes"/>
      <point x="298" y="51"/>
      <point x="351" y="72"/>
      <point x="396" y="111" type="curve"/>
      <point x="426" y="76" type="line"/>
      <point x="369" y="27"/>
      <point x="302" y="0"/>
    </contour>
    <contour>
      <point x="332" y="451" type="curve" smooth="yes"/>
      <point x="207" y="451"/>
      <point x="95" y="330"/>
      <point x="95" y="208" type="curve"/>
      <point x="435" y="378" type="line"/>
      <point x="419" y="424"/>
      <point x="379" y="451"/>
    </contour>
  </outline>
</glyph>
<glyph name="edieresis" format="1">
  <advance width="527"/>
  <unicode hex="00EB"/>
  <outline>
    <contour>
      <point x="237" y="0" type="curve" smooth="yes"/>
      <point x="302" y="0"/>
      <point x="369" y="27"/>
      <point x="426" y="76" type="curve"/>
      <point x="396" y="111" type="line"/>
      <point x="351" y="72"/>
      <point x="298" y="51"/>
      <point x="247" y="51" type="curve" smooth="yes"/>
      <point x="173" y="51"/>
      <point x="119" y="95"/>
      <point x="101" y="159" type="curve"/>
      <point x="497" y="355" type="line"/>
      <point x="491" y="435"/>
      <point x="432" y="502"/>
      <point x="343" y="502" type="curve" smooth="yes"/>
      <point x="191" y="502"/>
      <point x="42" y="357"/>
      <point x="42" y="197" type="curve" smooth="yes"/>
      <point x="42" y="85"/>
      <point x="121" y="0"/>
    </contour>
    <contour>
      <point x="332" y="451" type="curve" smooth="yes"/>
      <point x="379" y="451"/>
      <point x="419" y="424"/>
      <point x="435" y="378" type="curve"/>
      <point x="95" y="208" type="line"/>
      <point x="95" y="330"/>
      <point x="207" y="451"/>
    </contour>
    <contour>
      <point x="325" y="663" type="line"/>
      <point x="250" y="653" type="line"/>
      <point x="224" y="571" type="line"/>
      <point x="300" y="581" type="line"/>
    </contour>
    <contour>
      <point x="485" y="663" type="line"/>
      <point x="410" y="653" type="line"/>
      <point x="384" y="571" type="line"/>
      <point x="460" y="581" type="line"/>
    </contour>
  </outline>
</glyph>
<glyph name="idieresis" format="1">
  <advance width="246"/>
  <unicode hex="00EF"/>
  <outline>
    <contour>
      <point x="142" y="491" type="line"/>
      <point x="203" y="500" type="line"/>
      <point x="99" y="10" type="line"/>
      <point x="38" y="0" type="line"/>
    </contour>
    <contour>
      <point x="180" y="663" type="line"/>
      <point x="155" y="581" type="line"/>
      <point x="79" y="571" type="line"/>
      <point x="105" y="653" type="line"/>
    </contour>
    <contour>
      <point x="340" y="663" type="line"/>
      <point x="315" y="581" type="line"/>
      <point x="239" y="571" type="line"/>
      <point x="265" y="653" type="line"/>
    </contour>
  </outline>
</glyph>
<glyph name="oslash" format="1">
  <advance width="535"/>
  <unicode hex="00F8"/>
  <outline>
    <contour>
      <point x="448" y="451" type="line"/>
      <point x="478" y="420"/>
      <point x="493" y="374"/>
      <point x="493" y="325" type="curve" smooth="yes"/>
      <point x="493" y="155"/>
      <point x="336" y="0"/>
      <point x="197" y="0" type="curve" smooth="yes"/>
      <point x="164" y="0"/>
      <point x="133" y="9"/>
      <point x="108" y="25" type="curve"/>
      <point x="60" y="-35" type="line"/>
      <point x="22" y="-9" type="line"/>
      <point x="74" y="56" type="line"/>
      <point x="50" y="87"/>
      <point x="37" y="128"/>
      <point x="37" y="174" type="curve" smooth="yes"/>
      <point x="37" y="342"/>
      <point x="194" y="500"/>
      <point x="334" y="500" type="curve" smooth="yes"/>
      <point x="363" y="500"/>
      <point x="389" y="493"/>
      <point x="413" y="480" type="curve"/>
      <point x="463" y="545" type="line"/>
      <point x="502" y="519" type="line"/>
    </contour>
    <contour>
      <point x="112" y="104" type="curve"/>
      <point x="377" y="436" type="line"/>
      <point x="359" y="446"/>
      <point x="340" y="452"/>
      <point x="319" y="452" type="curve" smooth="yes"/>
      <point x="215" y="452"/>
      <point x="95" y="318"/>
      <point x="95" y="183" type="curve" smooth="yes"/>
      <point x="95" y="153"/>
      <point x="101" y="126"/>
    </contour>
    <contour>
      <point x="207" y="48" type="curve" smooth="yes"/>
      <point x="327" y="48"/>
      <point x="432" y="199"/>
      <point x="432" y="313" type="curve" smooth="yes"/>
      <point x="432" y="347"/>
      <point x="424" y="378"/>
      <point x="409" y="402" type="curve"/>
      <point x="142" y="68" type="line"/>
      <point x="160" y="55"/>
      <point x="182" y="48"/>
    </contour>
  </outline>
</glyph>
<glyph name="udieresis" format="1">
  <advance width="516"/>
  <unicode hex="00FC"/>
  <outline>
    <contour>
      <point x="126" y="289" type="curve" smooth="yes"/>
      <point x="144" y="374"/>
      <point x="182" y="488"/>
      <point x="189" y="504" type="curve"/>
      <point x="132" y="494" type="line"/>
      <point x="105" y="426"/>
      <point x="81" y="334"/>
      <point x="72" y="289" type="curve" smooth="yes"/>
      <point x="60" y="230"/>
      <point x="46" y="168"/>
      <point x="46" y="117" type="curve" smooth="yes"/>
      <point x="46" y="46"/>
      <point x="72" y="-6"/>
      <point x="161" y="-6" type="curve" smooth="yes"/>
      <point x="239" y="-6"/>
      <point x="316" y="36"/>
      <point x="349" y="74" type="curve"/>
      <point x="334" y="0" type="line"/>
      <point x="398" y="10" type="line"/>
      <point x="503" y="504" type="line"/>
      <point x="448" y="494" type="line"/>
      <point x="371" y="159" type="line" smooth="yes"/>
      <point x="366" y="138"/>
      <point x="359" y="124"/>
      <point x="349" y="116" type="curve" smooth="yes"/>
      <point x="323" y="92"/>
      <point x="242" y="43"/>
      <point x="173" y="43" type="curve" smooth="yes"/>
      <point x="118" y="43"/>
      <point x="102" y="79"/>
      <point x="102" y="130" type="curve" smooth="yes"/>
      <point x="102" y="175"/>
      <point x="114" y="233"/>
    </contour>
    <contour>
      <point x="318" y="663" type="line"/>
      <point x="243" y="653" type="line"/>
      <point x="217" y="571" type="line"/>
      <point x="293" y="581" type="line"/>
    </contour>
    <contour>
      <point x="479" y="663" type="line"/>
      <point x="404" y="653" type="line"/>
      <point x="378" y="571" type="line"/>
      <point x="454" y="581" type="line"/>
    </contour>
  </outline>
</glyph>
<glyph name="thorn" format="1">
  <advance width="528"/>
  <unicode hex="00FE"/>
  <outline>
    <contour>
      <point x="351" y="489" type="curve" smooth="yes"/>
      <point x="453" y="489"/>
      <point x="487" y="419"/>
      <point x="487" y="339" type="curve" smooth="yes"/>
      <point x="487" y="189"/>
      <point x="389" y="0"/>
      <point x="204" y="0" type="curve" smooth="yes"/>
      <point x="152" y="0"/>
      <point x="100" y="15"/>
      <point x="71" y="28" type="curve"/>
      <point x="26" y="-185" type="line"/>
      <point x="-28" y="-175" type="line"/>
      <point x="154" y="680" type="line"/>
      <point x="212" y="691" type="line"/>
      <point x="152" y="408" type="line"/>
      <point x="193" y="452"/>
      <point x="270" y="489"/>
    </contour>
    <contour>
      <point x="207" y="54" type="curve" smooth="yes"/>
      <point x="346" y="54"/>
      <point x="432" y="187"/>
      <point x="432" y="322" type="curve" smooth="yes"/>
      <point x="432" y="376"/>
      <point x="413" y="433"/>
      <point x="344" y="433" type="curve" smooth="yes"/>
      <point x="237" y="433"/>
      <point x="144" y="369"/>
      <point x="127" y="290" type="curve" smooth="yes"/>
      <point x="83" y="81" type="line"/>
      <point x="99" y="72"/>
      <point x="150" y="54"/>
    </contour>
  </outline>
</glyph>
<glyph name="ydieresis" format="1">
  <advance width="500"/>
  <unicode hex="00FF"/>
  <outline>
    <contour>
      <point x="480" y="500" type="line"/>
      <point x="526" y="476" type="line"/>
      <point x="71" y="-197" type="line"/>
      <point x="25" y="-173" type="line"/>
      <point x="183" y="61" type="line"/>
      <point x="65" y="474" type="line"/>
      <point x="121" y="499" type="line"/>
      <point x="227" y="127" type="line"/>
    </contour>
    <contour>
      <point x="302" y="663" type="line"/>
      <point x="277" y="581" type="line"/>
      <point x="201" y="571" type="line"/>
      <point x="227" y="653" type="line"/>
    </contour>
    <contour>
      <point x="462" y="663" type="line"/>
      <point x="437" y="581" type="line"/>
      <point x="361" y="571" type="line"/>
      <point x="387" y="653" type="line"/>
    </contour>
  </outline>
</glyph>
<glyph name="Abreve" format="1">
  <advance width="623"/>
  <unicode hex="0102"/>
  <outline>
    <contour>
      <point x="449" y="680" type="line"/>
      <point x="376" y="667" type="line"/>
      <point x="133" y="253" type="line"/>
      <point x="55" y="238" type="line"/>
      <point x="55" y="184" type="line"/>
      <point x="97" y="192" type="line"/>
      <point x="0" y="26" type="line"/>
      <point x="44" y="0" type="line"/>
      <point x="164" y="206" type="line"/>
      <point x="440" y="261" type="line"/>
      <point x="471" y="1" type="line"/>
      <point x="525" y="33" type="line"/>
    </contour>
    <contour>
      <point x="200" y="267" type="line"/>
      <point x="400" y="607" type="line"/>
      <point x="434" y="313" type="line"/>
    </contour>
    <contour>
      <point x="447" y="785" type="curve" smooth="yes"/>
      <point x="410" y="785"/>
      <point x="361" y="797"/>
      <point x="340" y="858" type="curve"/>
      <point x="303" y="828" type="line"/>
      <point x="316" y="775"/>
      <point x="367" y="739"/>
      <point x="437" y="739" type="curve" smooth="yes"/>
      <point x="500" y="739"/>
      <point x="568" y="777"/>
      <point x="598" y="832" type="curve"/>
      <point x="574" y="863" type="line"/>
      <point x="546" y="814"/>
      <point x="510" y="785"/>
    </contour>
  </outline>
</glyph>
<glyph name="abreve" format="1">
  <advance width="504"/>
  <unicode hex="0103"/>
  <outline>
    <contour>
      <point x="484" y="472" type="line"/>
      <point x="444" y="495"/>
      <point x="396" y="513"/>
      <point x="341" y="513" type="curve" smooth="yes"/>
      <point x="172" y="513"/>
      <point x="35" y="310"/>
      <point x="35" y="164" type="curve" smooth="yes"/>
      <point x="35" y="69"/>
      <point x="92" y="7"/>
      <point x="184" y="7" type="curve" smooth="yes"/>
      <point x="240" y="7"/>
      <point x="300" y="33"/>
      <point x="339" y="54" type="curve"/>
      <point x="328" y="0" type="line"/>
      <point x="386" y="11" type="line"/>
    </contour>
    <contour>
      <point x="194" y="62" type="curve" smooth="yes"/>
      <point x="119" y="63"/>
      <point x="94" y="119"/>
      <point x="94" y="178" type="curve" smooth="yes"/>
      <point x="94" y="235"/>
      <point x="158" y="458"/>
      <point x="334" y="458" type="curve" smooth="yes"/>
      <point x="368" y="458"/>
      <point x="406" y="444"/>
      <point x="423" y="436" type="curve"/>
      <point x="351" y="120" type="line"/>
      <point x="325" y="103"/>
      <point x="254" y="62"/>
    </contour>
    <contour>
      <point x="359" y="605" type="curve" smooth="yes"/>
      <point x="322" y="605"/>
      <point x="273" y="617"/>
      <point x="252" y="678" type="curve"/>
      <point x="215" y="648" type="line"/>
      <point x="228" y="595"/>
      <point x="278" y="559"/>
      <point x="348" y="559" type="curve" smooth="yes"/>
      <point x="411" y="559"/>
      <point x="479" y="597"/>
      <point x="510" y="652" type="curve"/>
      <point x="486" y="683" type="line"/>
      <point x="457" y="634"/>
      <point x="422" y="605"/>
    </contour>
  </outline>
</glyph>
<glyph name="Aogonek" format="1">
  <advance width="637"/>
  <unicode hex="0104"/>
  <outline>
    <contour>
      <point x="527" y="15" type="line"/>
      <point x="485" y="-11" type="line" smooth="yes"/>
      <point x="456" y="-30"/>
      <point x="402" y="-63"/>
      <point x="402" y="-113" type="curve" smooth="yes"/>
      <point x="402" y="-141"/>
      <point x="422" y="-158"/>
      <point x="452" y="-158" type="curve" smooth="yes"/>
      <point x="484" y="-158"/>
      <point x="506" y="-145"/>
      <point x="533" y="-127" type="curve"/>
      <point x="550" y="-159" type="line"/>
      <point x="528" y="-180"/>
      <point x="484" y="-201"/>
      <point x="443" y="-201" type="curve" smooth="yes"/>
      <point x="392" y="-201"/>
      <point x="359" y="-169"/>
      <point x="359" y="-122" type="curve" smooth="yes"/>
      <point x="359" y="-60"/>
      <point x="417" y="-5"/>
      <point x="468" y="24" type="curve"/>
      <point x="440" y="261" type="line"/>
      <point x="164" y="206" type="line"/>
      <point x="44" y="0" type="line"/>
      <point x="0" y="26" type="line"/>
      <point x="97" y="192" type="line"/>
      <point x="55" y="184" type="line"/>
      <point x="55" y="238" type="line"/>
      <point x="133" y="253" type="line"/>
      <point x="376" y="667" type="line"/>
      <point x="449" y="680" type="line"/>
    </contour>
    <contour>
      <point x="200" y="267" type="line"/>
      <point x="434" y="313" type="line"/>
      <point x="400" y="607" type="line"/>
    </contour>
  </outline>
</glyph>
<glyph name="aogonek" format="1">
  <advance width="510"/>
  <unicode hex="0105"/>
  <outline>
    <contour>
      <point x="386" y="15" type="line"/>
      <point x="483" y="472" type="line"/>
      <point x="443" y="495"/>
      <point x="395" y="513"/>
      <point x="340" y="513" type="curve" smooth="yes"/>
      <point x="171" y="513"/>
      <point x="34" y="310"/>
      <point x="34" y="164" type="curve" smooth="yes"/>
      <point x="34" y="69"/>
      <point x="91" y="7"/>
      <point x="183" y="7" type="curve" smooth="yes"/>
      <point x="239" y="7"/>
      <point x="299" y="33"/>
      <point x="338" y="54" type="curve"/>
      <point x="332" y="26" type="line"/>
      <point x="281" y="-4"/>
      <point x="219" y="-58"/>
      <point x="219" y="-122" type="curve" smooth="yes"/>
      <point x="219" y="-169"/>
      <point x="252" y="-201"/>
      <point x="303" y="-201" type="curve" smooth="yes"/>
      <point x="344" y="-201"/>
      <point x="388" y="-180"/>
      <point x="410" y="-159" type="curve"/>
      <point x="393" y="-127" type="line"/>
      <point x="366" y="-145"/>
      <point x="344" y="-158"/>
      <point x="312" y="-158" type="curve" smooth="yes"/>
      <point x="282" y="-158"/>
      <point x="262" y="-141"/>
      <point x="262" y="-113" type="curve" smooth="yes"/>
      <point x="262" y="-63"/>
      <point x="317" y="-29"/>
      <point x="345" y="-11" type="curve" smooth="yes"/>
    </contour>
    <contour>
      <point x="193" y="62" type="curve" smooth="yes"/>
      <point x="118" y="63"/>
      <point x="93" y="119"/>
      <point x="93" y="178" type="curve" smooth="yes"/>
      <point x="93" y="235"/>
      <point x="157" y="458"/>
      <point x="333" y="458" type="curve" smooth="yes"/>
      <point x="367" y="458"/>
      <point x="405" y="444"/>
      <point x="422" y="436" type="curve"/>
      <point x="350" y="120" type="line"/>
      <point x="324" y="103"/>
      <point x="253" y="62"/>
    </contour>
  </outline>
</glyph>
<glyph name="Cacute" format="1">
  <advance width="631"/>
  <unicode hex="0106"/>
  <outline>
    <contour>
      <point x="278" y="-1" type="curve" smooth="yes"/>
      <point x="382" y="-1"/>
      <point x="486" y="49"/>
      <point x="553" y="131" type="curve"/>
      <point x="523" y="170" type="line"/>
      <point x="467" y="94"/>
      <point x="384" y="52"/>
      <point x="290" y="52" type="curve" smooth="yes"/>
      <point x="179" y="52"/>
      <point x="104" y="134"/>
      <point x="104" y="241" type="curve" smooth="yes"/>
      <point x="104" y="366"/>
      <point x="262" y="628"/>
      <point x="418" y="628" type="curve" smooth="yes"/>
      <point x="499" y="628"/>
      <point x="537" y="594"/>
      <point x="557" y="564" type="curve"/>
      <point x="552" y="539" type="line"/>
      <point x="598" y="539" type="line"/>
      <point x="623" y="658" type="line"/>
      <point x="577" y="658" type="line"/>
      <point x="572" y="635" type="line"/>
      <point x="539" y="665"/>
      <point x="491" y="681"/>
      <point x="435" y="681" type="curve" smooth="yes"/>
      <point x="229" y="681"/>
      <point x="50" y="383"/>
      <point x="50" y="227" type="curve" smooth="yes"/>
      <point x="50" y="94"/>
      <point x="144" y="-1"/>
    </contour>
    <contour>
      <point x="360" y="771" type="line"/>
      <point x="393" y="736" type="line"/>
      <point x="579" y="848" type="line"/>
      <point x="536" y="893" type="line"/>
    </contour>
  </outline>
</glyph>
<glyph name="dcroat" format="1">
  <advance width="550"/>
  <unicode hex="0111"/>
  <outline>
    <contour>
      <point x="495" y="687" type="line"/>
      <point x="475" y="605" type="line"/>
      <point x="386" y="605" type="line"/>
      <point x="365" y="553" type="line"/>
      <point x="463" y="553" type="line"/>
      <point x="442" y="464" type="line"/>
      <point x="413" y="479"/>
      <point x="375" y="495"/>
      <point x="320" y="495" type="curve" smooth="yes"/>
      <point x="48" y="495"/>
      <point x="36" y="162"/>
      <point x="36" y="158" type="curve" smooth="yes"/>
      <point x="36" y="75"/>
      <point x="74" y="6"/>
      <point x="167" y="6" type="curve" smooth="yes"/>
      <point x="246" y="6"/>
      <point x="311" y="48"/>
      <point x="353" y="80" type="curve"/>
      <point x="334" y="0" type="line"/>
      <point x="392" y="10" type="line"/>
      <point x="519" y="553" type="line"/>
      <point x="611" y="553" type="line"/>
      <point x="632" y="605" type="line"/>
      <point x="532" y="605" type="line"/>
      <point x="554" y="697" type="line"/>
    </contour>
    <contour>
      <point x="372" y="162" type="line" smooth="yes"/>
      <point x="365" y="131"/>
      <point x="278" y="55"/>
      <point x="177" y="55" type="curve" smooth="yes"/>
      <point x="110" y="55"/>
      <point x="92" y="109"/>
      <point x="92" y="164" type="curve" smooth="yes"/>
      <point x="92" y="225"/>
      <point x="127" y="442"/>
      <point x="302" y="442" type="curve" smooth="yes"/>
      <point x="361" y="442"/>
      <point x="412" y="414"/>
      <point x="428" y="404" type="curve"/>
    </contour>
  </outline>
</glyph>
<glyph name="eogonek" format="1">
  <advance width="527"/>
  <unicode hex="0119"/>
  <outline>
    <contour>
      <point x="314" y="-127" type="line"/>
      <point x="287" y="-145"/>
      <point x="265" y="-158"/>
      <point x="233" y="-158" type="curve" smooth="yes"/>
      <point x="203" y="-158"/>
      <point x="183" y="-141"/>
      <point x="183" y="-113" type="curve" smooth="yes"/>
      <point x="183" y="-52"/>
      <point x="248" y="-20"/>
      <point x="314" y="11" type="curve" smooth="yes"/>
      <point x="357" y="31"/>
      <point x="400" y="50"/>
      <point x="426" y="76" type="curve"/>
      <point x="396" y="111" type="line"/>
      <point x="351" y="72"/>
      <point x="298" y="51"/>
      <point x="247" y="51" type="curve" smooth="yes"/>
      <point x="173" y="51"/>
      <point x="119" y="95"/>
      <point x="101" y="159" type="curve"/>
      <point x="497" y="355" type="line"/>
      <point x="491" y="435"/>
      <point x="432" y="502"/>
      <point x="343" y="502" type="curve" smooth="yes"/>
      <point x="191" y="502"/>
      <point x="42" y="356"/>
      <point x="42" y="196" type="curve" smooth="yes"/>
      <point x="42" y="91"/>
      <point x="110" y="10"/>
      <point x="215" y="1" type="curve"/>
      <point x="175" y="-30"/>
      <point x="140" y="-73"/>
      <point x="140" y="-122" type="curve" smooth="yes"/>
      <point x="140" y="-169"/>
      <point x="173" y="-201"/>
      <point x="224" y="-201" type="curve" smooth="yes"/>
      <point x="265" y="-201"/>
      <point x="309" y="-180"/>
      <point x="331" y="-159" type="curve"/>
    </contour>
    <contour>
      <point x="332" y="451" type="curve" smooth="yes"/>
      <point x="379" y="451"/>
      <point x="419" y="424"/>
      <point x="435" y="378" type="curve"/>
      <point x="95" y="208" type="line"/>
      <point x="95" y="330"/>
      <point x="207" y="451"/>
    </contour>
  </outline>
</glyph>
<glyph name="Jcircumflex" format="1">
  <advance width="469"/>
  <unicode hex="0134"/>
  <outline>
    <contour>
      <point x="277" y="679" type="line"/>
      <point x="538" y="679" type="line"/>
      <point x="526" y="622" type="line"/>
      <point x="475" y="622" type="line"/>
      <point x="377" y="162" type="line" smooth="yes"/>
      <point x="357" y="67"/>
      <point x="272" y="1"/>
      <point x="169" y="1" type="curve" smooth="yes"/>
      <point x="81" y="1"/>
      <point x="25" y="52"/>
      <point x="25" y="127" type="curve" smooth="yes"/>
      <point x="25" y="138"/>
      <point x="26" y="150"/>
      <point x="29" y="162" type="curve" smooth="yes"/>
      <point x="36" y="197" type="line"/>
      <point x="94" y="207" type="line"/>
      <point x="85" y="162" type="line" smooth="yes"/>
      <point x="83" y="154"/>
      <point x="82" y="146"/>
      <point x="82" y="138" type="curve" smooth="yes"/>
      <point x="82" y="87"/>
      <point x="119" y="52"/>
      <point x="180" y="52" type="curve" smooth="yes"/>
      <point x="252" y="52"/>
      <point x="307" y="98"/>
      <point x="321" y="162" type="curve" smooth="yes"/>
      <point x="419" y="622" type="line"/>
      <point x="265" y="622" type="line"/>
    </contour>
    <contour>
      <point x="315" y="718" type="line"/>
      <point x="291" y="760" type="line"/>
      <point x="467" y="881" type="line"/>
      <point x="570" y="759" type="line"/>
      <point x="525" y="719" type="line"/>
      <point x="448" y="806" type="line"/>
    </contour>
  </outline>
</glyph>
<glyph name="lacute" format="1">
  <advance width="226"/>
  <unicode hex="013A"/>
  <outline>
    <contour>
      <point x="174" y="681" type="line"/>
      <point x="233" y="692" type="line"/>
      <point x="88" y="10" type="line"/>
      <point x="30" y="0" type="line"/>
    </contour>
    <contour>
      <point x="148" y="771" type="line"/>
      <point x="324" y="893" type="line"/>
      <point x="367" y="848" type="line"/>
      <point x="181" y="736" type="line"/>
    </contour>
  </outline>
</glyph>
<glyph name="Lcaron" format="1">
  <advance width="532"/>
  <unicode hex="013D"/>
  <outline>
    <contour>
      <point x="55" y="0" type="line"/>
      <point x="462" y="29" type="line"/>
      <point x="470" y="85" type="line"/>
      <point x="123" y="60" type="line"/>
      <point x="255" y="678" type="line"/>
      <point x="196" y="668" type="line"/>
    </contour>
    <contour>
      <point x="443" y="881" type="line"/>
      <point x="310" y="792" type="line"/>
      <point x="233" y="880" type="line"/>
      <point x="188" y="840" type="line"/>
      <point x="291" y="718" type="line"/>
      <point x="467" y="838" type="line"/>
    </contour>
  </outline>
</glyph>
<glyph name="Lslash" format="1">
  <advance width="549"/>
  <unicode hex="0141"/>
  <outline>
    <contour>
      <point x="479" y="29" type="line"/>
      <point x="72" y="0" type="line"/>
      <point x="134" y="295" type="line"/>
      <point x="74" y="261" type="line"/>
      <point x="52" y="308" type="line"/>
      <point x="148" y="362" type="line"/>
      <point x="213" y="668" type="line"/>
      <point x="272" y="678" type="line"/>
      <point x="212" y="397" type="line"/>
      <point x="273" y="432" type="line"/>
      <point x="294" y="384" type="line"/>
      <point x="198" y="330" type="line"/>
      <point x="140" y="60" type="line"/>
      <point x="487" y="85" type="line"/>
    </contour>
  </outline>
</glyph>
<glyph name="lslash" format="1">
  <advance width="266"/>
  <unicode hex="0142"/>
  <outline>
    <contour>
      <point x="272" y="384" type="line"/>
      <point x="176" y="330" type="line"/>
      <point x="108" y="10" type="line"/>
      <point x="50" y="0" type="line"/>
      <point x="112" y="294" type="line"/>
      <point x="52" y="261" type="line"/>
      <point x="30" y="308" type="line"/>
      <point x="126" y="362" type="line"/>
      <point x="194" y="681" type="line"/>
      <point x="253" y="692" type="line"/>
      <point x="190" y="397" type="line"/>
      <point x="251" y="432" type="line"/>
    </contour>
  </outline>
</glyph>
<glyph name="nacute" format="1">
  <advance width="536"/>
  <unicode hex="0144"/>
  <outline>
    <contour>
      <point x="172" y="502" type="line"/>
      <point x="114" y="492" type="line"/>
      <point x="10" y="0" type="line"/>
      <point x="67" y="11" type="line"/>
      <point x="89" y="112" type="line" smooth="yes"/>
      <point x="104" y="182"/>
      <point x="144" y="265"/>
      <point x="190" y="327" type="curve" smooth="yes"/>
      <point x="264" y="426"/>
      <point x="321" y="446"/>
      <point x="365" y="446" type="curve" smooth="yes"/>
      <point x="411" y="446"/>
      <point x="426" y="425"/>
      <point x="426" y="367" type="curve" smooth="yes"/>
      <point x="426" y="309"/>
      <point x="406" y="219"/>
      <point x="385" y="114" type="curve" smooth="yes"/>
      <point x="362" y="0" type="line"/>
      <point x="418" y="12" type="line"/>
      <point x="439" y="115" type="line" smooth="yes"/>
      <point x="465" y="241"/>
      <point x="482" y="323"/>
      <point x="482" y="383" type="curve" smooth="yes"/>
      <point x="482" y="462"/>
      <point x="447" y="501"/>
      <point x="377" y="501" type="curve" smooth="yes"/>
      <point x="276" y="501"/>
      <point x="174" y="411"/>
      <point x="129" y="297" type="curve"/>
    </contour>
    <contour>
      <point x="274" y="602" type="line"/>
      <point x="307" y="567" type="line"/>
      <point x="493" y="679" type="line"/>
      <point x="450" y="724" type="line"/>
    </contour>
  </outline>
</glyph>
<glyph name="ncaron" format="1">
  <advance width="536"/>
  <unicode hex="0148"/>
  <outline>
    <contour>
      <point x="172" y="502" type="line"/>
      <point x="114" y="492" type="line"/>
      <point x="10" y="0" type="line"/>
      <point x="67" y="11" type="line"/>
      <point x="89" y="112" type="line" smooth="yes"/>
      <point x="104" y="182"/>
      <point x="144" y="265"/>
      <point x="190" y="327" type="curve" smooth="yes"/>
      <point x="264" y="426"/>
      <point x="321" y="446"/>
      <point x="365" y="446" type="curve" smooth="yes"/>
      <point x="411" y="446"/>
      <point x="426" y="425"/>
      <point x="426" y="367" type="curve" smooth="yes"/>
      <point x="426" y="309"/>
      <point x="406" y="219"/>
      <point x="385" y="114" type="curve" smooth="yes"/>
      <point x="362" y="0" type="line"/>
      <point x="418" y="12" type="line"/>
      <point x="439" y="115" type="line" smooth="yes"/>
      <point x="465" y="241"/>
      <point x="482" y="323"/>
      <point x="482" y="383" type="curve" smooth="yes"/>
      <point x="482" y="462"/>
      <point x="447" y="501"/>
      <point x="377" y="501" type="curve" smooth="yes"/>
      <point x="276" y="501"/>
      <point x="174" y="411"/>
      <point x="129" y="297" type="curve"/>
    </contour>
    <contour>
      <point x="499" y="712" type="line"/>
      <point x="365" y="623" type="line"/>
      <point x="288" y="711" type="line"/>
      <point x="243" y="671" type="line"/>
      <point x="346" y="549" type="line"/>
      <point x="523" y="669" type="line"/>
    </contour>
  </outline>
</glyph>
<glyph name="OE" format="1">
  <advance width="1093"/>
  <unicode hex="0152"/>
  <outline>
    <contour>
      <point x="559" y="56" type="line"/>
      <point x="617" y="326" type="line"/>
      <point x="985" y="326" type="line"/>
      <point x="1014" y="382" type="line"/>
      <point x="629" y="382" type="line"/>
      <point x="680" y="625" type="line"/>
      <point x="1095" y="625" type="line"/>
      <point x="1117" y="681" type="line"/>
      <point x="636" y="681" type="line"/>
      <point x="612" y="567" type="line"/>
      <point x="586" y="641"/>
      <point x="516" y="684"/>
      <point x="441" y="684" type="curve" smooth="yes"/>
      <point x="267" y="684"/>
      <point x="62" y="465"/>
      <point x="62" y="232" type="curve" smooth="yes"/>
      <point x="62" y="100"/>
      <point x="133" y="0"/>
      <point x="254" y="0" type="curve" smooth="yes"/>
      <point x="350" y="0"/>
      <point x="452" y="65"/>
      <point x="526" y="162" type="curve"/>
      <point x="492" y="0" type="line"/>
      <point x="958" y="0" type="line"/>
      <point x="989" y="56" type="line"/>
    </contour>
    <contour>
      <point x="265" y="52" type="curve" smooth="yes"/>
      <point x="171" y="52"/>
      <point x="116" y="132"/>
      <point x="116" y="241" type="curve" smooth="yes"/>
      <point x="116" y="449"/>
      <point x="289" y="632"/>
      <point x="423" y="632" type="curve" smooth="yes"/>
      <point x="521" y="632"/>
      <point x="576" y="542"/>
      <point x="576" y="435" type="curve" smooth="yes"/>
      <point x="576" y="276"/>
      <point x="433" y="52"/>
    </contour>
  </outline>
</glyph>
<glyph name="rcaron" format="1">
  <advance width="402"/>
  <unicode hex="0159"/>
  <outline>
    <contour>
      <point x="411" y="431" type="curve" smooth="yes"/>
      <point x="402" y="389" type="line"/>
      <point x="345" y="379" type="line"/>
      <point x="352" y="412" type="line" smooth="yes"/>
      <point x="353" y="418"/>
      <point x="354" y="423"/>
      <point x="354" y="427" type="curve" smooth="yes"/>
      <point x="354" y="439"/>
      <point x="348" y="447"/>
      <point x="326" y="447" type="curve" smooth="yes"/>
      <point x="255" y="447"/>
      <point x="139" y="348"/>
      <point x="119" y="252" type="curve" smooth="yes"/>
      <point x="68" y="10" type="line"/>
      <point x="10" y="0" type="line"/>
      <point x="114" y="492" type="line"/>
      <point x="172" y="502" type="line"/>
      <point x="145" y="376" type="line"/>
      <point x="188" y="430"/>
      <point x="262" y="502"/>
      <point x="344" y="502" type="curve" smooth="yes"/>
      <point x="386" y="502"/>
      <point x="412" y="477"/>
      <point x="412" y="444" type="curve" smooth="yes"/>
      <point x="412" y="440"/>
      <point x="412" y="435"/>
    </contour>
    <contour>
      <point x="439" y="712" type="line"/>
      <point x="463" y="669" type="line"/>
      <point x="286" y="549" type="line"/>
      <point x="183" y="671" type="line"/>
      <point x="228" y="711" type="line"/>
      <point x="305" y="623" type="line"/>
    </contour>
  </outline>
</glyph>
<glyph name="Scircumflex" format="1">
  <advance width="599"/>
  <unicode hex="015C"/>
  <outline>
    <contour>
      <point x="408" y="631" type="curve" smooth="yes"/>
      <point x="266" y="631"/>
      <point x="210" y="557"/>
      <point x="210" y="491" type="curve" smooth="yes"/>
      <point x="210" y="447"/>
      <point x="244" y="419"/>
      <point x="346" y="387" type="curve" smooth="yes"/>
      <point x="479" y="345"/>
      <point x="526" y="302"/>
      <point x="526" y="223" type="curve" smooth="yes"/>
      <point x="526" y="70"/>
      <point x="352" y="-1"/>
      <point x="249" y="-1" type="curve" smooth="yes"/>
      <point x="131" y="-1"/>
      <point x="47" y="60"/>
      <point x="37" y="152" type="curve"/>
      <point x="100" y="162" type="line"/>
      <point x="111" y="86"/>
      <point x="188" y="52"/>
      <point x="260" y="52" type="curve" smooth="yes"/>
      <point x="354" y="52"/>
      <point x="463" y="116"/>
      <point x="463" y="220" type="curve" smooth="yes"/>
      <point x="463" y="256"/>
      <point x="442" y="295"/>
      <point x="321" y="330" type="curve" smooth="yes"/>
      <point x="237" y="354"/>
      <point x="145" y="400"/>
      <point x="145" y="483" type="curve" smooth="yes"/>
      <point x="145" y="615"/>
      <point x="289" y="681"/>
      <point x="395" y="681" type="curve" smooth="yes"/>
      <point x="513" y="681"/>
      <point x="597" y="653"/>
      <point x="597" y="567" type="curve" smooth="yes"/>
      <point x="597" y="554"/>
      <point x="595" y="534"/>
      <point x="589" y="521" type="curve"/>
      <point x="535" y="510" type="line"/>
      <point x="540" y="523"/>
      <point x="541" y="536"/>
      <point x="541" y="546" type="curve" smooth="yes"/>
      <point x="541" y="613"/>
      <point x="461" y="631"/>
    </contour>
    <contour>
      <point x="305" y="718" type="line"/>
      <point x="281" y="760" type="line"/>
      <point x="457" y="881" type="line"/>
      <point x="560" y="759" type="line"/>
      <point x="515" y="719" type="line"/>
      <point x="438" y="806" type="line"/>
    </contour>
  </outline>
</glyph>
<glyph name="Scedilla" format="1">
  <advance width="599"/>
  <unicode hex="015E"/>
  <outline>
    <contour>
      <point x="408" y="631" type="curve" smooth="yes"/>
      <point x="461" y="631"/>
      <point x="541" y="613"/>
      <point x="541" y="546" type="curve" smooth="yes"/>
      <point x="541" y="536"/>
      <point x="540" y="523"/>
      <point x="535" y="510" type="curve"/>
      <point x="589" y="521" type="line"/>
      <point x="595" y="534"/>
      <point x="597" y="554"/>
      <point x="597" y="567" type="curve" smooth="yes"/>
      <point x="597" y="653"/>
      <point x="513" y="681"/>
      <point x="395" y="681" type="curve" smooth="yes"/>
      <point x="289" y="681"/>
      <point x="145" y="615"/>
      <point x="145" y="483" type="curve" smooth="yes"/>
      <point x="145" y="400"/>
      <point x="237" y="354"/>
      <point x="321" y="330" type="curve" smooth="yes"/>
      <point x="442" y="295"/>
      <point x="463" y="256"/>
      <point x="463" y="220" type="curve" smooth="yes"/>
      <point x="463" y="116"/>
      <point x="354" y="52"/>
      <point x="260" y="52" type="curve" smooth="yes"/>
      <point x="188" y="52"/>
      <point x="111" y="86"/>
      <point x="100" y="162" type="curve"/>
      <point x="37" y="152" type="line"/>
      <point x="45" y="74"/>
      <point x="107" y="19"/>
      <point x="197" y="3" type="curve"/>
      <point x="172" y="-42" type="line"/>
      <point x="194" y="-72" type="line"/>
      <point x="200" y="-67"/>
      <point x="216" y="-61"/>
      <point x="229" y="-61" type="curve" smooth="yes"/>
      <point x="252" y="-61"/>
      <point x="268" y="-77"/>
      <point x="268" y="-99" type="curve" smooth="yes"/>
      <point x="268" y="-131"/>
      <point x="238" y="-159"/>
      <point x="208" y="-159" type="curve" smooth="yes"/>
      <point x="192" y="-159"/>
      <point x="173" y="-149"/>
      <point x="171" y="-136" type="curve"/>
      <point x="134" y="-166" type="line"/>
      <point x="147" y="-188"/>
      <point x="170" y="-201"/>
      <point x="199" y="-201" type="curve" smooth="yes"/>
      <point x="256" y="-201"/>
      <point x="311" y="-148"/>
      <point x="311" y="-89" type="curve" smooth="yes"/>
      <point x="311" y="-46"/>
      <point x="278" y="-19"/>
      <point x="230" y="-19" type="curve" smooth="yes"/>
      <point x="226" y="-19" type="line"/>
      <point x="231" y="0" type="line"/>
      <point x="237" y="-1"/>
      <point x="243" y="-1"/>
      <point x="249" y="-1" type="curve" smooth="yes"/>
      <point x="352" y="-1"/>
      <point x="526" y="70"/>
      <point x="526" y="223" type="curve" smooth="yes"/>
      <point x="526" y="302"/>
      <point x="479" y="345"/>
      <point x="346" y="387" type="curve" smooth="yes"/>
      <point x="244" y="419"/>
      <point x="210" y="447"/>
      <point x="210" y="491" type="curve" smooth="yes"/>
      <point x="210" y="557"/>
      <point x="266" y="631"/>
    </contour>
  </outline>
</glyph>
<glyph name="scedilla" format="1">
  <advance width="460"/>
  <unicode hex="015F"/>
  <outline>
    <contour>
      <point x="306" y="505" type="curve" smooth="yes"/>
      <point x="358" y="505"/>
      <point x="438" y="489"/>
      <point x="438" y="419" type="curve" smooth="yes"/>
      <point x="438" y="407"/>
      <point x="435" y="393"/>
      <point x="431" y="379" type="curve"/>
      <point x="380" y="369" type="line"/>
      <point x="384" y="378"/>
      <point x="386" y="390"/>
      <point x="386" y="399" type="curve" smooth="yes"/>
      <point x="386" y="443"/>
      <point x="337" y="458"/>
      <point x="296" y="458" type="curve" smooth="yes"/>
      <point x="201" y="458"/>
      <point x="158" y="413"/>
      <point x="158" y="364" type="curve" smooth="yes"/>
      <point x="158" y="333"/>
      <point x="190" y="311"/>
      <point x="254" y="292" type="curve" smooth="yes"/>
      <point x="343" y="266"/>
      <point x="387" y="226"/>
      <point x="387" y="171" type="curve" smooth="yes"/>
      <point x="387" y="36"/>
      <point x="236" y="0"/>
      <point x="182" y="0" type="curve" smooth="yes"/>
      <point x="175" y="0" type="line"/>
      <point x="170" y="-19" type="line"/>
      <point x="174" y="-19" type="line" smooth="yes"/>
      <point x="222" y="-19"/>
      <point x="255" y="-46"/>
      <point x="255" y="-89" type="curve" smooth="yes"/>
      <point x="255" y="-148"/>
      <point x="200" y="-201"/>
      <point x="143" y="-201" type="curve" smooth="yes"/>
      <point x="114" y="-201"/>
      <point x="91" y="-188"/>
      <point x="78" y="-166" type="curve"/>
      <point x="115" y="-136" type="line"/>
      <point x="117" y="-149"/>
      <point x="136" y="-159"/>
      <point x="152" y="-159" type="curve" smooth="yes"/>
      <point x="182" y="-159"/>
      <point x="212" y="-131"/>
      <point x="212" y="-99" type="curve" smooth="yes"/>
      <point x="212" y="-77"/>
      <point x="196" y="-61"/>
      <point x="173" y="-61" type="curve" smooth="yes"/>
      <point x="160" y="-61"/>
      <point x="144" y="-67"/>
      <point x="138" y="-72" type="curve"/>
      <point x="116" y="-42" type="line"/>
      <point x="141" y="3" type="line"/>
      <point x="76" y="15"/>
      <point x="25" y="57"/>
      <point x="20" y="121" type="curve"/>
      <point x="77" y="130" type="line"/>
      <point x="82" y="77"/>
      <point x="133" y="50"/>
      <point x="189" y="50" type="curve" smooth="yes"/>
      <point x="255" y="50"/>
      <point x="329" y="95"/>
      <point x="329" y="159" type="curve" smooth="yes"/>
      <point x="329" y="205"/>
      <point x="288" y="220"/>
      <point x="222" y="243" type="curve" smooth="yes"/>
      <point x="162" y="264"/>
      <point x="100" y="288"/>
      <point x="100" y="355" type="curve" smooth="yes"/>
      <point x="100" y="480"/>
      <point x="237" y="505"/>
    </contour>
  </outline>
</glyph>
<glyph name="uni0162" format="1">
  <advance width="522"/>
  <unicode hex="0162"/>
  <outline>
    <contour>
      <point x="170" y="0" type="line"/>
      <point x="229" y="10" type="line"/>
      <point x="359" y="625" type="line"/>
      <point x="589" y="625" type="line"/>
      <point x="601" y="681" type="line"/>
      <point x="99" y="681" type="line"/>
      <point x="87" y="625" type="line"/>
      <point x="302" y="625" type="line"/>
    </contour>
    <contour>
      <point x="199" y="-19" type="line"/>
      <point x="130" y="-78" type="line"/>
      <point x="164" y="-100" type="line"/>
      <point x="90" y="-196" type="line"/>
      <point x="133" y="-224" type="line"/>
      <point x="261" y="-58" type="line"/>
    </contour>
  </outline>
</glyph>
<glyph name="uni0163" format="1">
  <advance width="373"/>
  <unicode hex="0163"/>
  <outline>
    <contour>
      <point x="404" y="502" type="line"/>
      <point x="266" y="502" type="line"/>
      <point x="302" y="671" type="line"/>
      <point x="243" y="661" type="line"/>
      <point x="209" y="502" type="line"/>
      <point x="71" y="502" type="line"/>
      <point x="59" y="446" type="line"/>
      <point x="197" y="446" type="line"/>
      <point x="103" y="0" type="line"/>
      <point x="162" y="10" type="line"/>
      <point x="254" y="446" type="line"/>
      <point x="392" y="446" type="line"/>
    </contour>
    <contour>
      <point x="129" y="-19" type="line"/>
      <point x="60" y="-78" type="line"/>
      <point x="94" y="-100" type="line"/>
      <point x="20" y="-196" type="line"/>
      <point x="63" y="-224" type="line"/>
      <point x="191" y="-58" type="line"/>
    </contour>
  </outline>
</glyph>
<glyph name="Uring" format="1">
  <advance width="684"/>
  <unicode hex="016E"/>
  <outline>
    <contour>
      <point x="287" y="0" type="curve" smooth="yes"/>
      <point x="128" y="0"/>
      <point x="77" y="88"/>
      <point x="77" y="225" type="curve" smooth="yes"/>
      <point x="77" y="346"/>
      <point x="132" y="572"/>
      <point x="155" y="670" type="curve"/>
      <point x="214" y="680" type="line"/>
      <point x="195" y="612"/>
      <point x="133" y="364"/>
      <point x="133" y="237" type="curve" smooth="yes"/>
      <point x="133" y="127"/>
      <point x="172" y="49"/>
      <point x="297" y="49" type="curve" smooth="yes"/>
      <point x="501" y="49"/>
      <point x="562" y="260"/>
      <point x="598" y="431" type="curve" smooth="yes"/>
      <point x="616" y="514"/>
      <point x="640" y="634"/>
      <point x="647" y="669" type="curve"/>
      <point x="705" y="680" type="line"/>
      <point x="700" y="656"/>
      <point x="679" y="550"/>
      <point x="664" y="476" type="curve" smooth="yes"/>
      <point x="615" y="245"/>
      <point x="542" y="0"/>
    </contour>
    <contour>
      <point x="440" y="721" type="curve" smooth="yes"/>
      <point x="381" y="721"/>
      <point x="345" y="757"/>
      <point x="345" y="804" type="curve" smooth="yes"/>
      <point x="345" y="875"/>
      <point x="426" y="940"/>
      <point x="506" y="940" type="curve" smooth="yes"/>
      <point x="567" y="940"/>
      <point x="600" y="900"/>
      <point x="600" y="856" type="curve" smooth="yes"/>
      <point x="600" y="770"/>
      <point x="506" y="721"/>
    </contour>
    <contour>
      <point x="493" y="893" type="curve" smooth="yes"/>
      <point x="457" y="893"/>
      <point x="388" y="864"/>
      <point x="388" y="813" type="curve" smooth="yes"/>
      <point x="388" y="785"/>
      <point x="415" y="767"/>
      <point x="452" y="767" type="curve" smooth="yes"/>
      <point x="497" y="767"/>
      <point x="558" y="800"/>
      <point x="558" y="844" type="curve" smooth="yes"/>
      <point x="558" y="871"/>
      <point x="530" y="893"/>
    </contour>
  </outline>
</glyph>
<glyph name="Uhungarumlaut" format="1">
  <advance width="684"/>
  <unicode hex="0170"/>
  <outline>
    <contour>
      <point x="287" y="0" type="curve" smooth="yes"/>
      <point x="542" y="0"/>
      <point x="615" y="245"/>
      <point x="664" y="476" type="curve" smooth="yes"/>
      <point x="679" y="550"/>
      <point x="700" y="656"/>
      <point x="705" y="680" type="curve"/>
      <point x="647" y="669" type="line"/>
      <point x="640" y="634"/>
      <point x="616" y="514"/>
      <point x="598" y="431" type="curve" smooth="yes"/>
      <point x="562" y="260"/>
      <point x="501" y="49"/>
      <point x="297" y="49" type="curve" smooth="yes"/>
      <point x="172" y="49"/>
      <point x="133" y="127"/>
      <point x="133" y="237" type="curve" smooth="yes"/>
      <point x="133" y="364"/>
      <point x="195" y="612"/>
      <point x="214" y="680" type="curve"/>
      <point x="155" y="670" type="line"/>
      <point x="132" y="572"/>
      <point x="77" y="346"/>
      <point x="77" y="225" type="curve" smooth="yes"/>
      <point x="77" y="88"/>
      <point x="128" y="0"/>
    </contour>
    <contour>
      <point x="295" y="771" type="line"/>
      <point x="329" y="736" type="line"/>
      <point x="515" y="848" type="line"/>
      <point x="471" y="893" type="line"/>
    </contour>
    <contour>
      <point x="456" y="771" type="line"/>
      <point x="489" y="736" type="line"/>
      <point x="675" y="848" type="line"/>
      <point x="632" y="893" type="line"/>
    </contour>
  </outline>
</glyph>
<glyph name="Ydieresis" format="1">
  <advance width="628"/>
  <unicode hex="0178"/>
  <outline>
    <contour>
      <point x="323" y="266" type="line"/>
      <point x="654" y="677" type="line"/>
      <point x="716" y="677" type="line"/>
      <point x="171" y="0" type="line"/>
      <point x="109" y="0" type="line"/>
      <point x="280" y="214" type="line"/>
      <point x="108" y="677" type="line"/>
      <point x="170" y="677" type="line"/>
    </contour>
    <contour>
      <point x="416" y="819" type="line"/>
      <point x="390" y="737" type="line"/>
      <point x="314" y="727" type="line"/>
      <point x="340" y="809" type="line"/>
    </contour>
    <contour>
      <point x="576" y="819" type="line"/>
      <point x="550" y="737" type="line"/>
      <point x="474" y="727" type="line"/>
      <point x="500" y="809" type="line"/>
    </contour>
  </outline>
</glyph>
<glyph name="Zacute" format="1">
  <advance width="621"/>
  <unicode hex="0179"/>
  <outline>
    <contour>
      <point x="18" y="0" type="line"/>
      <point x="496" y="0" type="line"/>
      <point x="519" y="61" type="line"/>
      <point x="75" y="61" type="line"/>
      <point x="649" y="626" type="line"/>
      <point x="635" y="681" type="line"/>
      <point x="179" y="681" type="line"/>
      <point x="155" y="620" type="line"/>
      <point x="577" y="620" type="line"/>
      <point x="4" y="55" type="line"/>
    </contour>
    <contour>
      <point x="347" y="771" type="line"/>
      <point x="380" y="736" type="line"/>
      <point x="567" y="848" type="line"/>
      <point x="523" y="893" type="line"/>
    </contour>
  </outline>
</glyph>
<glyph name="zdotaccent" format="1">
  <advance width="453"/>
  <unicode hex="017C"/>
  <outline>
    <contour>
      <point x="351" y="0" type="line"/>
      <point x="-3" y="0" type="line"/>
      <point x="-16" y="46" type="line"/>
      <point x="387" y="446" type="line"/>
      <point x="91" y="446" type="line"/>
      <point x="113" y="502" type="line"/>
      <point x="452" y="502" type="line"/>
      <point x="465" y="457" type="line"/>
      <point x="61" y="56" type="line"/>
      <point x="372" y="56" type="line"/>
    </contour>
    <contour>
      <point x="366" y="663" type="line"/>
      <point x="341" y="581" type="line"/>
      <point x="265" y="571" type="line"/>
      <point x="291" y="653" type="line"/>
    </contour>
  </outline>
</glyph>
<glyph name="Zcaron" format="1">
  <advance width="621"/>
  <unicode hex="017D"/>
  <outline>
    <contour>
      <point x="18" y="0" type="line"/>
      <point x="4" y="55" type="line"/>
      <point x="577" y="620" type="line"/>
      <point x="155" y="620" type="line"/>
      <point x="179" y="681" type="line"/>
      <point x="635" y="681" type="line"/>
      <point x="649" y="626" type="line"/>
      <point x="75" y="61" type="line"/>
      <point x="519" y="61" type="line"/>
      <point x="496" y="0" type="line"/>
    </contour>
    <contour>
      <point x="557" y="881" type="line"/>
      <point x="581" y="838" type="line"/>
      <point x="405" y="718" type="line"/>
      <point x="302" y="840" type="line"/>
      <point x="347" y="880" type="line"/>
      <point x="424" y="792" type="line"/>
    </contour>
  </outline>
</glyph>
<glyph name="zcaron" format="1">
  <advance width="453"/>
  <unicode hex="017E"/>
  <outline>
    <contour>
      <point x="351" y="0" type="line"/>
      <point x="372" y="56" type="line"/>
      <point x="61" y="56" type="line"/>
      <point x="465" y="457" type="line"/>
      <point x="452" y="502" type="line"/>
      <point x="113" y="502" type="line"/>
      <point x="91" y="446" type="line"/>
      <point x="387" y="446" type="line"/>
      <point x="-16" y="46" type="line"/>
      <point x="-3" y="0" type="line"/>
    </contour>
    <contour>
      <point x="448" y="712" type="line"/>
      <point x="315" y="623" type="line"/>
      <point x="238" y="711" type="line"/>
      <point x="193" y="671" type="line"/>
      <point x="296" y="549" type="line"/>
      <point x="472" y="669" type="line"/>
    </contour>
  </outline>
</glyph>
<glyph name="caron" format="1">
  <advance width="500"/>
  <unicode hex="02C7"/>
  <outline>
    <contour>
      <point x="452" y="712" type="line"/>
      <point x="319" y="623" type="line"/>
      <point x="242" y="711" type="line"/>
      <point x="197" y="671" type="line"/>
      <point x="300" y="549" type="line"/>
      <point x="476" y="669" type="line"/>
    </contour>
  </outline>
</glyph>
<glyph name="breve" format="1">
  <advance width="500"/>
  <unicode hex="02D8"/>
  <outline>
    <contour>
      <point x="329" y="605" type="curve" smooth="yes"/>
      <point x="292" y="605"/>
      <point x="243" y="617"/>
      <point x="222" y="678" type="curve"/>
      <point x="185" y="648" type="line"/>
      <point x="198" y="595"/>
      <point x="248" y="559"/>
      <point x="318" y="559" type="curve" smooth="yes"/>
      <point x="381" y="559"/>
      <point x="449" y="597"/>
      <point x="480" y="652" type="curve"/>
      <point x="456" y="683" type="line"/>
      <point x="427" y="634"/>
      <point x="392" y="605"/>
    </contour>
  </outline>
</glyph>
<glyph name="endash" format="1">
  <advance width="596"/>
  <unicode hex="2013"/>
  <outline>
    <contour>
      <point x="508" y="222" type="line"/>
      <point x="63" y="222" type="line"/>
      <point x="84" y="276" type="line"/>
      <point x="530" y="276" type="line"/>
    </contour>
  </outline>
</glyph>
<glyph name="emdash" format="1">
  <advance width="877"/>
  <unicode hex="2014"/>
  <outline>
    <contour>
      <point x="790" y="222" type="line"/>
      <point x="812" y="278" type="line"/>
      <point x="85" y="278" type="line"/>
      <point x="63" y="222" type="line"/>
    </contour>
  </outline>
</glyph>
<glyph name="quoteright" format="1">
  <advance width="182"/>
  <unicode hex="2019"/>
  <outline>
    <contour>
      <point x="196" y="749" type="line"/>
      <point x="126" y="690" type="line"/>
      <point x="160" y="668" type="line"/>
      <point x="86" y="572" type="line"/>
      <point x="129" y="544" type="line"/>
      <point x="257" y="710" type="line"/>
    </contour>
  </outline>
</glyph>
<glyph name="quotedblbase" format="1">
  <advance width="482"/>
  <unicode hex="201E"/>
  <outline>
    <contour>
      <point x="124" y="79" type="line"/>
      <point x="185" y="40" type="line"/>
      <point x="57" y="-126" type="line"/>
      <point x="14" y="-98" type="line"/>
      <point x="88" y="-2" type="line"/>
      <point x="54" y="20" type="line"/>
    </contour>
    <contour>
      <point x="290" y="79" type="line"/>
      <point x="351" y="40" type="line"/>
      <point x="223" y="-126" type="line"/>
      <point x="180" y="-98" type="line"/>
      <point x="254" y="-2" type="line"/>
      <point x="220" y="20" type="line"/>
    </contour>
  </outline>
</glyph>
<glyph name="bullet" format="1">
  <advance width="378"/>
  <unicode hex="2022"/>
  <outline>
    <contour>
      <point x="276" y="253" type="curve"/>
      <point x="283" y="300"/>
      <point x="257" y="342"/>
      <point x="207" y="342" type="curve" smooth="yes"/>
      <point x="153" y="342"/>
      <point x="97" y="292"/>
      <point x="97" y="235" type="curve" smooth="yes"/>
      <point x="97" y="194"/>
      <point x="126" y="164"/>
      <point x="169" y="164" type="curve" smooth="yes"/>
      <point x="218" y="164"/>
      <point x="266" y="204"/>
    </contour>
  </outline>
</glyph>
<glyph name="Euro" format="1">
  <advance width="663"/>
  <unicode hex="20AC"/>
  <outline>
    <contour>
      <point x="368" y="0" type="curve" smooth="yes"/>
      <point x="238" y="0"/>
      <point x="139" y="101"/>
      <point x="139" y="225" type="curve" smooth="yes"/>
      <point x="139" y="237"/>
      <point x="140" y="249"/>
      <point x="142" y="261" type="curve"/>
      <point x="61" y="261" type="line"/>
      <point x="83" y="318" type="line"/>
      <point x="153" y="318" type="line"/>
      <point x="159" y="342"/>
      <point x="168" y="365"/>
      <point x="176" y="385" type="curve"/>
      <point x="87" y="385" type="line"/>
      <point x="109" y="442" type="line"/>
      <point x="204" y="442" type="line"/>
      <point x="241" y="514"/>
      <point x="376" y="691"/>
      <point x="526" y="691" type="curve" smooth="yes"/>
      <point x="591" y="691"/>
      <point x="644" y="669"/>
      <point x="678" y="630" type="curve"/>
      <point x="632" y="594" type="line"/>
      <point x="609" y="617"/>
      <point x="572" y="637"/>
      <point x="510" y="637" type="curve" smooth="yes"/>
      <point x="416" y="637"/>
      <point x="305" y="519"/>
      <point x="260" y="442" type="curve"/>
      <point x="488" y="442" type="line"/>
      <point x="466" y="385" type="line"/>
      <point x="230" y="385" type="line"/>
      <point x="219" y="361"/>
      <point x="212" y="339"/>
      <point x="205" y="318" type="curve"/>
      <point x="442" y="318" type="line"/>
      <point x="419" y="261" type="line"/>
      <point x="195" y="261" type="line"/>
      <point x="194" y="254"/>
      <point x="194" y="247"/>
      <point x="194" y="240" type="curve" smooth="yes"/>
      <point x="194" y="146"/>
      <point x="273" y="54"/>
      <point x="373" y="54" type="curve" smooth="yes"/>
      <point x="432" y="54"/>
      <point x="478" y="68"/>
      <point x="516" y="89" type="curve"/>
      <point x="547" y="51" type="line"/>
      <point x="495" y="19"/>
      <point x="430" y="0"/>
    </contour>
  </outline>
</glyph>
